<svg width="101" height="33" viewBox="0 0 101 33" fill="none" xmlns="http://www.w3.org/2000/svg">
<path d="M39.3903 28.6921C35.6794 26.2976 30.6266 25.8757 22.4684 28.1394C13.7848 30.1921 10.8883 31.4812 7.09928 28.8503C5.65201 27.5613 5.12467 25.4812 5.49381 22.4812C6.38834 17.6121 8.86295 12.9031 13.2047 7.71753C15.6266 5.0066 17.8883 2.69019 20.863 1.74293C23.152 1.1648 22.9411 2.95386 22.652 3.21754C22.363 3.21754 21.863 3.27027 21.4938 3.5066C21.1774 3.74292 20.3356 4.5066 20.3102 5.55933C20.2575 7.13745 21.8883 6.823 22.5993 5.95386C23.363 4.97925 24.4938 3.11206 23.5993 1.34839C23.2301 0.717534 22.5993 0.295659 21.7829 0.137456C19.0465 -0.0207469 16.5192 1.26832 14.1774 2.71558C9.04655 6.26832 4.96647 11.2156 2.65006 16.6101C1.30826 19.8738 0.0973257 24.532 1.91373 28.321C3.30826 30.9519 6.23014 32.3484 9.7028 32.0574C12.1501 31.7937 15.0719 31.0046 17.0719 30.532C19.0465 30.0574 29.2028 26.5574 32.5192 32.6375C32.5192 32.6375 33.6247 30.4793 36.3883 30.4539C38.652 30.2429 41.9411 31.1121 44.3356 32.8757C43.5485 31.6921 41.2848 29.9304 39.3903 28.6921Z" fill="white"/>
<path d="M23.5212 8.35032C21.6266 7.11399 17.8102 9.48118 14.7575 13.5613C11.9684 17.2195 10.7575 21.4831 12.0739 23.4304C14.0212 25.7468 17.652 22.3777 19.1794 20.5886L19.3903 20.3777C20.443 19.2468 21.2594 17.9031 22.0212 16.5886C22.0212 16.5886 22.7321 15.405 22.7848 15.3523C23.2321 15.2741 23.7594 15.1413 24.363 14.9577C24.363 14.9831 22.0465 18.8523 22.2848 20.7741C22.363 21.3523 22.3102 23.5105 24.3903 24.1433C27.1794 24.6179 29.3903 22.4597 31.3649 20.5378C31.3649 20.5378 31.7067 20.2214 31.8903 20.0378C31.8376 20.2214 31.7848 20.4851 31.7848 20.4851C30.9684 23.3269 32.0739 23.907 32.7594 24.1433C34.8376 24.7488 37.3122 21.7214 37.3376 21.7214C37.2848 22.6687 37.0739 23.4577 38.0739 24.0906C39.0212 24.4323 39.9684 23.907 40.7047 23.4323C43.3356 21.5906 45.4411 18.696 47.152 16.196H46.0739C46.0739 16.196 43.3903 20.0652 41.652 20.907C41.652 20.907 41.3356 21.0652 41.152 20.9324C40.9157 20.7488 41.0212 20.3542 41.152 20.0632C41.152 20.0378 47.863 8.43235 47.863 8.43235H44.7067C44.7067 8.43235 44.3649 8.98508 44.3376 9.03782C44.3122 9.01243 44.2594 8.93235 44.2321 8.87961C42.2848 6.16868 37.8376 10.3269 34.4958 15.1687C33.2067 17.0378 31.5739 19.1159 29.8903 20.6159C29.8903 20.6159 27.3903 22.9324 26.3122 21.2741C25.9176 20.5906 26.0485 19.5632 26.2594 18.905C27.5231 15.3523 29.654 12.1159 32.1286 10.1687C32.8122 9.64329 33.5758 9.48508 33.945 9.69407C34.3141 9.90305 34.3669 10.4304 34.1286 10.7722C33.5505 10.7468 33.1032 10.9304 32.734 11.3249C31.9977 12.0886 31.734 12.8249 31.9704 13.5359C33.1012 15.1413 35.3649 11.9577 35.2594 10.0359C35.234 9.35227 34.8376 8.69407 34.2848 8.35227C33.4684 7.85227 32.2067 7.98313 31.3903 8.37766C30.3122 8.79954 28.5739 10.2195 27.5739 11.3523C26.3102 12.7468 24.1266 14.2995 23.443 14.1413C23.6012 13.5085 25.443 9.74485 23.5212 8.35032ZM38.7594 13.9031C39.3649 13.0613 41.154 10.7722 41.6012 10.4031C43.0758 9.11399 43.654 9.69212 43.7067 10.0866C42.3376 12.5339 40.7321 15.3503 39.2067 17.8757L38.7321 18.5866C38.0739 19.612 37.3903 20.4812 36.2848 21.112C36.1266 21.1648 35.863 21.1648 35.7067 21.0593C35.4958 20.9284 35.4176 20.6902 35.443 20.4538C35.4684 19.6394 36.2848 17.2449 38.7594 13.9031ZM21.5485 15.3757C21.5485 15.3757 21.5231 15.4538 21.4958 15.4812L20.1266 17.7175C19.2848 18.823 18.2575 20.2175 16.9684 20.8757C16.5739 21.0066 16.0465 21.0866 15.7848 20.7449C15.2067 20.0613 15.4958 19.114 15.7594 18.3503L15.8376 18.0866C16.5212 16.2175 17.6266 14.5866 18.6794 13.0339C18.7047 13.0339 18.7321 13.0085 18.7321 13.0085C18.7321 13.0085 18.7321 13.0085 18.7321 13.0339C19.3903 14.323 20.654 14.9031 21.5739 15.1921C21.5739 15.1921 21.5739 15.1921 21.5739 15.2175C21.6012 15.2722 21.6012 15.2976 21.5485 15.3757ZM22.863 12.7449C22.863 12.7702 22.2575 14.1667 22.2575 14.1667C22.1794 14.2449 22.0212 14.1921 21.863 14.1667L21.5993 14.114C20.7575 13.8503 20.0993 13.2722 19.9157 12.614C19.652 11.2976 20.7575 10.2722 21.2575 9.87766C21.7321 9.53586 22.4684 9.37766 22.9157 9.71946C23.1794 10.0359 23.2848 10.4304 23.2848 10.8777C23.2575 11.4558 23.0739 12.114 22.863 12.7449Z" fill="white"/>
<path d="M62.8122 16.9812C62.4958 16.323 61.7868 15.9031 61.0231 15.9558C58.5231 16.1922 56.0758 18.2449 54.7868 21.1922C54.1032 22.7176 53.734 23.9558 53.4977 25.9558C54.2868 25.0613 55.8669 23.5867 57.6559 22.7722C57.6559 22.7722 57.8922 20.8504 59.1559 19.1668C59.6305 18.4558 60.5778 17.325 61.6305 17.6414C62.5524 17.9578 62.236 20.5359 60.9997 23.0105C60.0778 24.8523 58.6833 26.6687 57.2633 27.9324C55.9997 28.9851 54.1579 30.2742 52.5524 29.2742C51.527 28.6687 51.027 27.4051 51.1305 25.7742C51.6305 21.1433 53.7087 17.2215 56.736 12.7469C59.8415 8.58865 63.2633 4.29959 67.8669 2.03592C68.8141 1.56131 69.6833 1.45779 70.4196 1.74686C70.4196 1.74686 66.1032 4.116 64.0251 8.53592C63.4997 9.64139 62.7614 11.1668 63.4997 12.5105C63.8942 13.1941 64.5524 13.2742 65.1051 13.2215C67.6305 12.6433 69.2633 10.2742 70.6051 8.116C71.3688 6.48514 72.0797 4.85232 72.0797 3.03787C72.0797 2.82693 72.0797 2.53787 72.0544 2.30155C73.2653 1.67069 75.7379 2.80155 75.7379 2.80155C77.6852 3.4324 81.7907 6.59061 83.1852 7.19608C83.8688 6.40701 84.9743 5.22147 85.6071 4.61795L84.6852 4.06522C83.2379 3.17069 81.6852 2.32889 80.1852 1.51248C76.7379 -0.356659 73.9489 0.301544 72.527 0.801544C71.9743 1.01248 71.4489 1.17068 71.4489 1.17068C70.3962 0.0124817 68.6598 0.117953 67.3962 0.434359C62.818 1.75076 58.5544 4.9617 53.9743 10.5398C50.6051 14.909 48.527 18.6707 47.4215 22.409C46.5524 24.909 46.3161 28.5926 48.3962 30.7781C50.1598 32.6473 52.527 32.2254 54.1852 31.5672C57.7907 29.8035 61.027 25.9617 62.6325 21.5672C63.0485 20.2449 63.4704 18.4031 62.8122 16.9812ZM71.1012 3.19217C70.6266 8.66678 66.3649 11.8758 65.3122 12.1394C64.6813 12.2703 63.5758 11.9812 64.5485 9.69217C65.9704 6.5867 68.4176 3.98123 71.0485 2.63944C71.1012 2.85037 71.1012 2.98123 71.1012 3.19217Z" fill="white"/>
<path d="M96.3122 3.90308C94.0231 5.19214 91.654 6.03394 88.7848 5.74487C87.9958 6.6394 87.2067 7.56128 86.4958 8.50855C90.5231 9.53394 94.7848 7.24487 97.1793 5.08667C99.7067 2.90308 100.996 0.139404 100.996 0.139404C100.996 0.139404 99.1012 2.29761 96.3122 3.90308Z" fill="white"/>
<path d="M53.0739 8.45581H50.0739L48.3903 11.1921H51.3903L53.0739 8.45581Z" fill="white"/>
<path d="M88.7848 28.9558C88.4684 29.1667 88.0212 29.0085 88.1794 28.5085C88.6012 27.2195 90.2848 24.614 90.2848 24.614L94.9684 16.3249H91.7575C91.5993 16.5613 91.2829 17.1413 91.2829 17.1413C91.1247 16.905 90.7048 16.3523 90.5192 16.2195C89.7301 15.7195 88.5973 15.9558 87.8083 16.4031C84.361 18.4031 81.861 22.4031 79.861 25.4812C79.861 25.4812 77.7829 28.9285 76.6247 29.1921C75.7302 29.2703 75.8083 28.0613 75.861 27.7703C76.2028 25.7175 77.0192 23.7703 77.8356 22.0066C79.4938 20.8484 81.3884 19.3484 83.1247 17.6902C86.861 14.112 90.0192 10.0593 90.4938 9.16283C90.4938 9.16283 89.9938 9.2683 89.4157 9.29369C86.5466 13.321 80.652 19.1355 78.863 20.0046C79.652 18.1101 84.7575 9.00463 89.1266 4.66283L89.8102 4.00463C90.863 2.97924 91.9684 1.89916 92.8102 1.74095C92.8884 1.74095 93.0212 1.74095 93.1266 1.95189C93.152 2.7683 92.863 3.34642 92.5212 4.03002L92.0466 5.03002C92.0466 5.03002 92.7301 4.89916 93.1774 4.76635C93.7028 3.79174 94.2829 2.68822 94.0719 1.37181C93.9938 0.949939 93.7028 0.635487 93.3083 0.555409C92.0192 0.319081 90.5973 1.26634 89.4665 2.05541L89.4137 2.0808C83.5719 6.65892 78.6247 13.2644 74.3083 22.2917C73.9919 22.5281 72.7829 22.8171 72.5719 22.6863C72.9938 21.8171 73.5466 20.6335 73.8083 19.3445C73.861 18.9753 73.8864 18.6081 73.8864 18.239C73.8864 17.4499 73.7028 16.7136 72.9919 16.1863C72.1755 15.7644 71.1501 15.9753 70.4665 16.2644C67.3884 17.5535 65.0719 20.7117 63.4137 23.3171C62.5192 24.9753 61.6247 26.739 61.3884 28.7917C61.2048 30.3699 61.572 31.3972 62.4665 31.9226C63.3884 32.3972 64.5719 31.8972 65.0192 31.6589C68.1501 30.0007 70.3356 26.7117 72.0466 23.6843C72.1247 23.6843 73.0466 23.6589 73.7575 23.4734H73.7829C73.7302 23.6042 73.361 24.7097 73.361 24.7097C72.2829 27.9206 71.7555 30.0788 72.8083 31.3679C74.2829 33.1843 76.7301 31.3152 78.7028 28.8152C78.2809 31.7898 79.8337 32.2624 80.9919 32.0261C82.3337 31.657 83.861 30.2097 84.5446 29.4734C84.3083 30.3425 84.3864 31.8953 85.6227 32.0515C86.4645 32.2097 87.0973 31.7351 87.8337 31.3679C90.4645 29.946 93.5973 25.1843 94.4118 23.8152H93.3337C92.1012 25.5613 90.6286 27.8777 88.7848 28.9558ZM65.2594 28.6394C65.1012 28.4031 65.0485 28.114 65.0231 27.823C64.9977 26.0339 66.9177 22.823 68.2868 21.0593C68.8649 22.323 70.1559 23.112 70.9177 23.4538C69.9704 25.614 66.6266 30.2449 65.2594 28.6394ZM71.4704 22.5085C71.3649 22.5613 69.7594 22.0339 69.445 20.5085C69.1813 19.2195 70.0759 18.1921 70.945 17.6921C71.3141 17.4031 71.8669 17.2976 72.2868 17.4558C72.6559 17.7195 72.7614 18.1667 72.7614 18.6667C72.7614 18.9558 72.7087 19.2722 72.6833 19.5613V19.614C72.3903 20.614 71.9958 21.614 71.4704 22.5085ZM84.5485 28.0613L84.2321 28.3249C83.7848 28.7195 83.3376 29.1413 82.7848 28.9304C82.6266 28.8777 82.5212 28.6667 82.4958 28.5085C82.4704 27.3777 82.9704 26.3503 83.4704 25.3249L83.6012 25.0613C85.0231 22.6921 86.654 19.9304 89.0759 17.9831C89.4704 17.6941 89.9176 17.4304 90.3923 17.6413C90.4977 17.7468 90.6286 17.905 90.6286 18.0886C90.6286 18.1413 90.5758 18.2995 90.5505 18.3249C89.8669 19.4031 89.2341 20.5613 88.6032 21.6667C87.3903 23.8503 86.1286 26.0867 84.5485 28.0613Z" fill="white"/>
</svg>
