<svg width="217" height="197" viewBox="0 0 217 197" fill="none" xmlns="http://www.w3.org/2000/svg">
<path fill-rule="evenodd" clip-rule="evenodd" d="M106.067 70.2278C105.11 66.0976 102.79 62.3246 98.785 59.2103C85.1105 48.5758 70.6207 50.6368 57.5728 58.9301C39.2361 70.5902 23.915 94.9926 18.8276 110.617C18.2337 112.443 19.2335 114.404 21.0564 115C22.88 115.591 24.8434 114.594 25.4373 112.768C30.1542 98.2814 44.2971 75.6078 61.3016 64.7977C71.8174 58.1089 83.4965 56.1263 94.5201 64.6967C96.9038 66.5508 98.3515 68.7588 99.0641 71.1716C97.3586 71.451 95.6706 71.7605 94.005 72.1011C87.3389 73.4704 70.9236 80.1739 61.5601 88.8512C54.1519 95.7188 51.0932 103.767 57.0262 111.537C60.4216 115.987 65.5796 117.356 71.5245 116.122C78.8552 114.599 87.5789 108.817 94.4522 101.209C100.169 94.8841 104.586 87.3336 106.045 80.1612C106.249 79.1563 106.398 78.1574 106.491 77.1692C139.446 73.4782 178.386 81.6382 205.31 99.4381C206.909 100.496 209.064 100.055 210.124 98.4538C211.182 96.8549 210.739 94.6974 209.14 93.6399C181.058 75.0728 140.498 66.4917 106.067 70.2278ZM99.3415 78.1716C98.0179 78.3982 96.7036 78.6436 95.4057 78.9117C89.422 80.1399 74.6906 86.1597 66.2846 93.9489C61.8369 98.0715 58.992 102.657 62.5517 107.323C64.2976 109.611 67.0553 109.953 70.1105 109.316C74.1621 108.475 78.6678 105.965 82.9327 102.557C89.5458 97.2664 95.5584 89.7774 98.2361 82.2993C98.7307 80.9181 99.1086 79.5354 99.3415 78.1716Z" fill="#DFC091"/>
<path fill-rule="evenodd" clip-rule="evenodd" d="M156.445 106.005C170.85 98.9521 190.556 97.5154 206.526 99.7263C208.425 99.9885 210.181 98.6618 210.446 96.7605C210.708 94.8613 209.379 93.1031 207.48 92.8408C190.222 90.454 168.952 92.1407 153.389 99.7635C151.667 100.608 150.954 102.691 151.798 104.413C152.643 106.135 154.723 106.85 156.445 106.005Z" fill="#DFC091"/>
<path fill-rule="evenodd" clip-rule="evenodd" d="M208.193 92.6946C196.191 87.2345 185.22 73.4922 180.416 61.1703C179.717 59.382 177.699 58.4982 175.913 59.1953C174.128 59.8924 173.242 61.9074 173.938 63.6978C179.344 77.5483 191.82 92.883 205.315 99.0227C207.059 99.8173 209.123 99.0434 209.916 97.2971C210.708 95.5508 209.936 93.4893 208.193 92.6946Z" fill="#DFC091"/>
</svg>
