<svg width="263" height="231" viewBox="0 0 263 231" fill="none" xmlns="http://www.w3.org/2000/svg">
<path d="M148 154.275C159 152.775 154.243 133.031 149.546 135.736C141.058 140.625 147.356 159.786 157.443 167.889C192.428 195.993 254.846 171.368 254.846 171.368" stroke="#DFC091" stroke-width="2" stroke-linecap="round"/>
<path d="M12.9859 77.2863C12.9859 77.2863 14.7383 113.189 37.308 126.113C53.2318 135.231 73.9771 129.763 73.4958 117.553C73.2413 111.095 66.3035 109.881 62.0894 112.368C54.473 116.862 59.0025 136.182 67.3688 144.671C96.385 174.114 151.835 152.32 151.835 152.32" stroke="#DFC091" stroke-width="2" stroke-linecap="round"/>
<path d="M250.549 180.143L255.726 171.409L245.168 166.016" stroke="#DFC091" stroke-width="2" stroke-linecap="round" stroke-linejoin="round"/>
</svg>
