<svg width="274" height="206" viewBox="0 0 274 206" fill="none" xmlns="http://www.w3.org/2000/svg">
<path d="M161.257 115.793C170.587 109.775 157.916 93.9043 154.807 98.3435C149.188 106.367 163.008 121.058 175.578 124.127C219.172 134.77 265.289 86.0287 265.289 86.0287" stroke="#DFC091" stroke-width="4" stroke-linecap="round"/>
<path d="M6.34428 103.226C6.34428 103.226 23.1362 135.008 49.0553 137.157C67.3421 138.674 83.8193 124.935 78.2127 114.078C75.2471 108.335 68.4482 110.174 65.6838 114.211C60.6875 121.508 72.9722 137.091 84.1465 141.239C122.901 155.623 163.904 112.397 163.904 112.397" stroke="#DFC091" stroke-width="4" stroke-linecap="round"/>
<path d="M265.111 95.7977L266.103 85.6933L254.254 85.2793" stroke="#DFC091" stroke-width="4" stroke-linecap="round" stroke-linejoin="round"/>
</svg>
