<svg width="144" height="282" viewBox="0 0 144 282" fill="none" xmlns="http://www.w3.org/2000/svg">
<path opacity="0.2" d="M25.3683 248.982L55.7002 200.413L32.1472 185.655C37.956 179.144 58.0843 156.375 63.5557 145.65C63.5557 145.65 93.2009 122.583 99.8165 92.0171C99.8165 92.0171 107.541 99.6366 114.778 90.268C122.016 80.8993 151.509 64.7219 128.991 40.8894L131.044 31.4828C134.84 29.5434 138.016 26.5755 140.211 22.9167C145.452 14.6445 145.075 5.28592 139.589 1.71921C134.103 -1.84751 125.44 2.16853 120.276 10.4424C117.705 14.3666 116.435 19.0027 116.646 23.6913L109.819 31.65C109.819 31.65 86.2764 7.18686 68.9442 61.5648C68.9442 61.5648 66.957 71.429 71.9471 74.554C71.9471 74.554 46.5127 108.584 43.4037 124.606C43.4037 124.606 21.4827 155.292 21.0999 164.659L14.8603 174.658L-10.0907 159.058L-40.9219 208.477C-55.5064 203.418 -66.4713 202.848 -69.6164 207.847C-75.122 216.67 -54.6291 239.47 -23.8155 258.772C6.99823 278.073 36.4056 286.549 41.9106 277.751C45.4444 272.33 38.5807 261.232 25.3683 248.982Z" fill="#DFC091"/>
</svg>
