<svg width="10" height="17" viewBox="0 0 10 17" fill="none" xmlns="http://www.w3.org/2000/svg">
<path fill-rule="evenodd" clip-rule="evenodd" d="M9.01908 7.04174C9.20674 7.22916 9.31228 7.48343 9.31252 7.74865V8.2555C9.30944 8.52014 9.20432 8.77338 9.01908 8.96241L2.16335 15.8048C2.03813 15.9311 1.86767 16.0021 1.68985 16.0021C1.51203 16.0021 1.34157 15.9311 1.21635 15.8048L0.26935 14.8578C0.143888 14.7349 0.0731865 14.5666 0.0731865 14.391C0.0731865 14.2153 0.143888 14.0471 0.26935 13.9241L6.20476 8.00207L0.26935 2.08C0.143098 1.95478 0.0720825 1.78432 0.0720825 1.6065C0.0720825 1.42868 0.143098 1.25822 0.26935 1.133L1.21635 0.199343C1.34157 0.0730905 1.51203 0.0020752 1.68985 0.0020752C1.86767 0.0020752 2.03813 0.0730905 2.16335 0.199343L9.01908 7.04174Z" fill="white"/>
</svg>
