<svg width="61" height="49" viewBox="0 0 61 49" fill="none" xmlns="http://www.w3.org/2000/svg">
<path d="M35.2418 36.673C34.8944 36.673 34.5471 36.673 34.1997 36.673C33.8049 36.6523 33.4102 36.7453 32.9996 36.735C32.3207 36.7143 31.6575 36.7556 30.9785 36.7659C30.1101 36.7763 29.2258 36.8072 28.3574 36.8382C27.2836 36.8795 26.2099 36.9208 25.1362 36.9828C23.1151 37.0861 21.094 37.1996 19.0886 37.4062C16.6096 37.654 14.1621 38.0051 11.7147 38.3666C11.4936 38.3975 11.2726 38.4492 11.0515 38.4389C10.7515 38.4285 10.562 38.3253 10.4831 38.1394C10.3883 37.9019 10.4673 37.6643 10.4989 37.4372C10.641 36.3425 10.9094 35.2582 11.2568 34.1843C11.7147 32.7902 12.22 31.4167 12.8516 30.0536C12.8516 30.0329 12.8674 30.0226 12.8674 30.002C12.8989 29.8987 12.8674 29.878 12.7253 29.8987C12.4726 29.94 12.2516 30.0329 12.1252 30.1982C11.9831 30.3737 11.8568 30.5596 11.7305 30.7455C11.241 31.52 10.8147 32.3048 10.3883 33.0896C9.94621 33.8848 9.51988 34.6799 9.10934 35.4854C8.77775 36.136 8.52511 36.8072 8.25668 37.4681C8.13036 37.7779 7.98825 38.0981 7.87772 38.4182C7.83035 38.5628 7.83035 38.5628 8.05141 38.5834C9.26724 38.6867 10.4673 38.79 11.6831 38.8932C13.199 39.0171 14.7306 39.1514 16.2464 39.2753C18.1886 39.4405 20.115 39.6058 22.0572 39.7607C23.2572 39.8639 24.4414 39.9672 25.6415 40.0601C25.7362 40.0705 25.8468 40.0601 25.9415 40.1221C25.9099 40.1634 25.8625 40.1531 25.8152 40.1531C24.3783 40.1531 22.9414 40.1531 21.4887 40.1531C21.4729 40.1531 21.4571 40.1531 21.4256 40.1531C20.9834 40.1531 20.5255 40.1428 20.0834 40.1531C19.2939 40.1737 18.5202 40.0705 17.7307 40.0085C17.0044 39.9569 16.278 39.8846 15.5675 39.8226C14.8411 39.7607 14.1148 39.6987 13.4042 39.6367C12.6937 39.5748 11.9673 39.5128 11.2568 39.4509C10.5462 39.3889 9.83568 39.3269 9.12513 39.265C8.39879 39.203 7.67245 39.1411 6.93032 39.0791C6.21977 39.0171 5.49343 38.9552 4.78288 38.8932C4.07233 38.8313 3.36178 38.7693 2.65123 38.7073C2.24069 38.6764 1.81436 38.6454 1.40382 38.6041C1.16696 38.5834 1.1038 38.5111 1.1038 38.3356C1.1038 36.7659 1.1038 35.2066 1.08801 33.6369C1.04064 24.8076 1.00906 15.9783 0.961695 7.14903C0.961695 5.80656 0.945905 4.45377 0.945905 3.1113C0.945905 3.06999 0.945905 3.01836 0.945905 2.97705C0.914325 2.60529 0.945905 2.22321 0.930115 1.85145C0.930115 1.77916 0.930115 1.70687 0.930115 1.64491C0.930115 1.29381 0.930115 0.932373 0.930115 0.581266C0.930115 0.498652 0.945905 0.426366 1.1038 0.395386C1.24592 0.395386 1.38803 0.395386 1.51435 0.395386C2.13016 0.426366 2.74597 0.477999 3.37757 0.529632C5.36711 0.705186 7.35665 0.870413 9.34619 1.04597C11.92 1.26283 14.4779 1.47969 17.0517 1.70687C17.5412 1.74818 17.9675 1.69655 18.4255 1.57263C20.3834 1.03564 22.4203 0.663879 24.5362 0.508979C26.2573 0.374732 27.9784 0.447019 29.6679 0.715513C31.7996 1.04597 33.7891 1.59328 35.6208 2.37811C36.3471 2.68791 37.0419 3.02869 37.6735 3.41077C37.784 3.48306 37.9261 3.50371 38.0682 3.51404C40.2788 3.69992 42.5052 3.89613 44.7158 4.08201C47.1317 4.28854 49.5476 4.49508 51.9634 4.70161C54.1898 4.88749 56.4004 5.0837 58.6268 5.26958C59.1479 5.31088 59.6848 5.36252 60.2058 5.40382C60.3637 5.41415 60.4901 5.44513 60.5216 5.55872C60.5216 5.62068 60.5216 5.67232 60.5216 5.73428C60.3637 6.02342 60.269 6.3229 60.1427 6.61204C59.0532 9.30731 57.9794 12.0026 56.8899 14.6978C55.8162 17.3931 54.7267 20.078 53.653 22.7733C52.5793 25.4376 51.5213 28.0915 50.4476 30.7558C49.3739 33.4201 48.3159 36.074 47.2422 38.7383C46.7843 39.9052 46.3106 41.0618 45.8369 42.2184C45.7738 42.363 45.6632 42.4146 45.4422 42.4043C45.0632 42.3733 44.6685 42.332 44.2737 42.301C44.3527 42.1048 44.4316 41.9086 44.5106 41.7124C44.5579 41.6814 44.6211 41.6814 44.6842 41.6814C44.9527 41.6918 45.0158 41.6608 45.079 41.4955C45.2053 41.1651 45.3474 40.845 45.4738 40.5145C45.8053 39.6781 46.1527 38.8416 46.4843 38.0155C46.5159 37.9328 46.5159 37.8502 46.4843 37.7676C45.9001 36.3322 45.3474 34.8968 44.8106 33.4614C44.3842 32.3048 43.9421 31.1379 43.5158 29.9813C43.3421 29.5063 43.1526 29.0416 42.9631 28.5666C42.8842 28.3394 42.6947 28.1845 42.3947 28.0709C42.2052 27.9986 41.9999 27.9366 41.7789 27.9056C41.4947 27.8643 41.3999 27.9263 41.4315 28.1122C41.5105 28.4323 41.5894 28.7524 41.6684 29.0622C41.9052 29.9606 42.1263 30.8487 42.2842 31.7575C42.3947 32.3771 42.4894 32.9967 42.5684 33.6163C42.6473 34.143 42.6947 34.6696 42.7421 35.1963C42.7737 35.4441 42.7579 35.7023 42.7894 35.9501C42.821 36.1773 42.9 36.2599 43.2474 36.3012C43.6105 36.3425 43.9579 36.3735 44.3053 36.4458C44.4 36.4665 44.4948 36.4768 44.5737 36.5078C44.6685 36.5387 44.7474 36.5697 44.7316 36.642C44.7158 36.7143 44.6369 36.7453 44.5421 36.7556C44.3527 36.7866 44.1474 36.7866 43.9579 36.7659C43.6895 36.7453 43.421 36.7453 43.1526 36.7453C43.0737 36.7453 42.9947 36.7453 42.9158 36.7143C42.3473 36.7143 41.7631 36.7143 41.1947 36.7143C41.1789 36.7246 41.1473 36.735 41.1315 36.7453C40.4525 36.7556 39.7893 36.7866 39.1104 36.7143C39.0788 36.7143 39.063 36.704 39.0314 36.704C38.5261 36.704 38.0209 36.6833 37.5156 36.7143C36.8366 36.7556 36.1734 36.7246 35.4945 36.735C35.3997 36.704 35.3208 36.704 35.2418 36.673Z" fill="#242220"/>
<path d="M0.882715 1.62426C0.882715 2.06831 0.882715 2.51236 0.882715 2.96673H0.866925H0.851135C0.851135 2.52268 0.851135 2.07863 0.851135 1.62426C0.866925 1.61393 0.882715 1.61393 0.882715 1.62426Z" fill="#EDEDEC"/>
<path d="M0.882715 1.62428H0.866925H0.851135C0.851135 1.26285 0.851135 0.901417 0.851135 0.529657C0.866925 0.51933 0.866925 0.51933 0.882715 0.529657C0.882715 0.89109 0.882715 1.26285 0.882715 1.62428Z" fill="#D5D5D4"/>
<path d="M0.882752 0.529662H0.851172C0.835381 0.436722 0.819591 0.343781 1.04065 0.385088C0.977492 0.426395 0.898542 0.467702 0.882752 0.529662Z" fill="#F6F6F5"/>
<path d="M11.1305 44.6349C11.4147 44.4903 11.6832 44.3561 11.9358 44.2218C13.1832 43.5919 14.4464 42.962 15.6938 42.3424C15.8517 42.2598 16.0254 42.1875 15.9781 42.0326C15.9307 41.8777 15.7254 41.8157 15.5201 41.7847C15.3307 41.7641 15.3149 41.7125 15.378 41.6092C15.4412 41.5059 15.4254 41.3614 15.5359 41.2994C15.6465 41.2374 15.8675 41.2787 16.0254 41.2787C17.7307 41.2787 19.4361 41.2787 21.1414 41.2684C21.2993 41.2684 21.3309 41.2891 21.2993 41.3923C21.2361 41.6092 21.1572 41.7641 20.7309 41.7951C20.3361 41.8157 20.0203 42.0119 19.7045 42.1772C18.2202 42.9517 16.7518 43.7262 15.2675 44.5007C15.1412 44.5626 15.1254 44.6039 15.2201 44.7072C16.0412 45.5333 16.8623 46.3595 17.715 47.1753C18.015 47.4747 18.3781 47.7226 18.8834 47.8775C19.0413 47.9291 19.1992 47.9498 19.3729 47.9601C19.4677 47.9601 19.4834 47.9911 19.4519 48.0427V48.053C19.4045 48.1873 19.4045 48.3628 19.2624 48.4455C19.1203 48.5281 18.8518 48.4764 18.6466 48.4764C17.715 48.4661 16.7833 48.4971 15.8517 48.4455C14.857 48.3835 14.0359 48.1357 13.4359 47.5987C12.599 46.8551 11.7148 46.122 10.9884 45.3268C10.9726 45.3061 10.941 45.2752 10.8937 45.2339C10.7989 45.4714 10.72 45.6779 10.6252 45.8948C10.42 46.3801 10.2147 46.8655 10.0094 47.3612C9.91469 47.5987 10.0568 47.7742 10.4673 47.8981C10.7516 47.9808 10.7516 47.9808 10.6726 48.177C10.5621 48.4661 10.5621 48.4661 10.1042 48.4661C8.38306 48.4661 6.66195 48.4661 4.95663 48.4661C4.76715 48.4661 4.73557 48.4351 4.79873 48.3319C4.81452 48.3112 4.81452 48.2906 4.81452 48.2699C4.86189 48.0737 4.94084 47.9498 5.3198 47.9085C5.80929 47.8672 6.06193 47.5883 6.25141 47.3095C6.583 46.8345 6.7409 46.3182 6.94617 45.8225C7.40408 44.7485 7.8462 43.6745 8.30411 42.5902C8.33569 42.5283 8.35148 42.4663 8.36727 42.4147C8.44622 42.0842 8.24095 41.8777 7.71988 41.7744C7.59356 41.7538 7.54619 41.7331 7.59356 41.6402C7.65672 41.5266 7.64093 41.3717 7.75146 41.2891C7.87778 41.2168 8.11463 41.2684 8.30411 41.2684C9.8989 41.2684 11.4937 41.2684 13.0885 41.2581C13.278 41.2581 13.3095 41.2891 13.2464 41.3923C13.2464 41.4027 13.2464 41.413 13.2464 41.413C13.199 41.5989 13.1201 41.7538 12.7569 41.8054C12.4095 41.857 12.22 42.0636 12.1253 42.2908C11.8095 43.0446 11.4937 43.7881 11.1779 44.5316C11.1463 44.5833 11.1305 44.5936 11.1305 44.6349Z" fill="white"/>
<path d="M25.6573 44.1289C26.9363 44.1289 28.1995 44.1289 29.4943 44.1289C29.2732 44.7175 29.0521 45.2855 28.8311 45.8741C28.3416 45.5333 27.7258 45.492 27.0784 45.492C26.4468 45.492 25.8152 45.492 25.1836 45.492C25.0889 45.492 25.0257 45.5023 24.9941 45.5746C24.7731 46.1323 24.5362 46.6796 24.3151 47.2372C24.1888 47.5677 24.3625 47.7949 24.852 47.9291C24.9783 47.9601 24.9941 48.0014 24.9625 48.0737C24.9152 48.1769 24.8836 48.2802 24.852 48.3835C24.8362 48.4558 24.7888 48.4764 24.6783 48.4764C23.1151 48.4764 21.5677 48.4661 20.0045 48.4764C19.8782 48.4764 19.8466 48.4661 19.8782 48.3731C20.2413 47.516 20.6045 46.6486 20.9677 45.7915C21.4256 44.7072 21.8835 43.6229 22.3414 42.5386C22.5151 42.1255 22.3098 41.8983 21.694 41.7847C21.5993 41.7641 21.5993 41.7434 21.6151 41.6918C21.7256 41.2994 21.7256 41.2994 22.3414 41.2994C24.8046 41.2994 27.2521 41.2994 29.7153 41.2994C30.3469 41.2994 30.9627 41.2994 31.5943 41.2994C31.7207 41.2994 31.768 41.3097 31.7365 41.413C31.5154 41.9913 31.2943 42.5592 31.0733 43.1375C31.0575 43.1892 31.0417 43.2511 30.9154 43.2305C30.8206 43.2098 30.6943 43.2821 30.6312 43.1582C30.5206 42.931 30.2206 42.8381 29.889 42.7864C29.7627 42.7658 29.6206 42.7658 29.4943 42.7658C28.4679 42.7658 27.4416 42.7658 26.431 42.7658C26.3363 42.7658 26.2731 42.7658 26.2415 42.8484C26.0836 43.2614 25.9099 43.6745 25.7362 44.0876C25.6731 44.0773 25.6731 44.0979 25.6573 44.1289Z" fill="white"/>
<path d="M41.3841 46.8551C41.2262 47.2785 41.0526 47.6709 40.9578 48.0737C40.8947 48.3112 40.7368 48.3731 40.4052 48.4145C38.9999 48.5694 37.5945 48.6623 36.1576 48.6107C34.8629 48.559 33.6155 48.3835 32.4944 47.9188C30.5522 47.1133 29.8416 45.6366 30.7575 44.2425C31.3259 43.375 32.2891 42.7245 33.4891 42.2288C34.7839 41.6918 36.2208 41.4026 37.7366 41.2787C39.3314 41.1445 40.8947 41.1961 42.4421 41.4646C42.7579 41.5266 42.7579 41.5162 42.6789 41.7331C42.4737 42.2184 42.2684 42.7038 42.0631 43.1892C42.0157 43.3027 41.6999 43.3647 41.5894 43.2718C41.0052 42.7967 40.2315 42.6212 39.3472 42.6005C38.1472 42.5696 37.0103 42.6831 35.9682 43.1065C34.7208 43.6125 34.1207 44.5006 34.405 45.4197C34.6102 46.0909 35.2418 46.5556 36.1419 46.8654C37.1682 47.2062 38.2577 47.2579 39.363 47.1546C40.042 47.103 40.6894 46.9894 41.3841 46.8551Z" fill="white"/>
<path d="M43.0263 41.5679C43.0263 41.3717 43.2316 41.2271 43.5316 41.2271C43.8316 41.2271 44.0684 41.3717 44.0684 41.5679C44.0684 41.7538 43.8316 41.9087 43.5474 41.9087C43.2474 41.8983 43.0263 41.7538 43.0263 41.5679Z" fill="#333130"/>
<path d="M33.2839 40.783C33.3628 40.7417 33.4734 40.7727 33.5681 40.7624C33.6313 40.7934 33.7734 40.7624 33.7734 40.8037C33.7892 40.8656 33.647 40.8656 33.5839 40.8966C33.5207 40.9173 33.4576 40.9379 33.3944 40.9586C33.347 40.8966 33.3155 40.8347 33.2839 40.783Z" fill="#292624"/>
<path d="M21.7729 6.26096C23.2572 6.13704 24.6941 6.22998 26.052 6.67402C26.1152 6.69468 26.1626 6.705 26.2257 6.72566C26.4468 6.79794 26.6363 6.78762 26.8257 6.67402C27.0468 6.53978 27.2994 6.41586 27.5521 6.29194C27.6942 6.21965 27.7258 6.13704 27.6626 6.03377C27.7889 5.94083 27.9626 5.8892 28.1205 5.81691C28.4679 5.66201 28.8311 5.52776 29.21 5.41417C29.7627 5.24894 30.3153 5.21796 30.8996 5.3109C32.0364 5.49678 33.1417 5.72397 34.1997 6.05442C34.8944 6.27128 35.5418 6.5501 36.0945 6.91154C36.7419 7.34526 37.3103 7.83061 37.6419 8.4089C37.6893 8.48119 37.7682 8.55348 37.6893 8.62576C37.5629 8.65674 37.5629 8.72903 37.5629 8.80132C37.5945 9.21438 37.6261 9.62745 37.6577 10.0405C37.6735 10.1335 37.6577 10.2161 37.6419 10.2987C37.5787 10.7014 37.7998 11.0525 38.084 11.383C38.3051 11.6412 38.5735 11.8787 38.7156 12.1678C38.8893 12.5292 38.9209 12.8907 38.9367 13.2624C38.9367 13.3554 38.8419 13.3967 38.6525 13.376C38.2261 13.3244 37.7998 13.2831 37.3735 13.2211C36.7892 13.1385 36.1892 13.1179 35.5892 13.1075C34.247 13.0766 32.9207 13.0559 31.5785 13.0869C30.6943 13.1075 29.8258 13.1695 29.0205 13.438C28.7363 13.5309 28.4837 13.6549 28.231 13.7788C28.01 13.8924 27.7731 13.9233 27.4889 13.882C26.9363 13.7994 26.3836 13.7994 25.831 13.9233C25.531 13.9853 25.2625 13.944 25.0099 13.8201C24.6467 13.6445 24.2993 13.4483 23.9046 13.3037C23.2098 13.0456 22.4519 12.9113 21.6624 12.8597C20.5571 12.7874 19.4518 12.7358 18.3465 12.7358C18.2833 12.6945 18.3149 12.6428 18.3307 12.5912C18.4412 12.1988 18.5202 11.8064 18.5676 11.4036C18.5991 11.1145 18.7413 10.8357 18.8518 10.5569C19.0255 10.1025 19.2307 9.63778 19.4518 9.19373C19.8466 8.4089 20.3203 7.64473 21.0624 6.96317C21.1413 6.89088 21.2203 6.8186 21.315 6.74631C21.5361 6.61206 21.7256 6.46749 21.7729 6.26096Z" fill="#FDF1D6"/>
<path d="M34.8471 26.1398C33.9944 26.7078 33.0786 27.2138 32.0207 27.6165C31.768 27.7198 31.4996 27.8024 31.2312 27.8954C30.868 28.009 30.489 27.9676 30.2206 27.7818C30.1258 27.7198 30.0469 27.6682 29.9522 27.6062C29.8732 27.5339 29.9048 27.4513 29.889 27.379C29.7943 26.8937 29.5416 26.4393 29.2416 26.0056C29.0837 25.7681 29.0363 25.5306 29.0521 25.2827C29.0679 25.0349 29.0837 24.787 29.1784 24.5495C29.1942 24.5185 29.2258 24.4669 29.1784 24.4463C29.1153 24.4153 29.0679 24.4566 29.0048 24.4772C28.8942 24.5289 28.8311 24.5908 28.7995 24.6734C28.7521 24.8283 28.6732 24.9626 28.5153 25.0865C28.4205 25.1588 28.2942 25.2001 28.1521 25.1691C28.01 25.1381 27.931 25.0659 27.9152 24.9626C27.8995 24.88 27.9152 24.8077 27.8995 24.7251C27.8837 24.5392 27.7573 24.4566 27.4731 24.4979C27.031 24.5598 26.5889 24.5082 26.131 24.5082C26.0836 24.5082 26.052 24.4979 26.0047 24.4772C25.9415 24.2397 25.7362 24.1055 25.3731 24.0538C25.1994 24.0332 25.0257 23.9815 24.8836 23.9093C24.7099 23.8163 24.7099 23.744 24.8836 23.6614C25.4362 23.4136 26.0362 23.331 26.6994 23.3826C27.8047 23.4652 28.91 23.5065 29.9995 23.3103C30.4416 23.2277 30.8838 23.1451 31.3417 23.0521C31.4838 23.0212 31.5943 23.0418 31.7206 23.0831C31.768 23.1038 31.8154 23.1141 31.8785 23.1348C32.3049 23.2587 32.5101 23.4652 32.4786 23.7853C32.447 24.0642 32.4786 24.343 32.5891 24.6218C32.668 24.818 32.8259 24.8387 33.047 24.7044C33.3154 24.5392 33.3944 24.312 33.4733 24.0848C33.5523 23.837 33.5997 23.5891 33.7418 23.3516C33.8049 23.2277 33.9155 23.1141 34.0576 23.0212C34.5628 22.7217 34.7839 22.3293 34.8786 21.8956C34.8944 21.782 34.9102 21.658 34.926 21.5341C34.9418 21.5031 34.9418 21.4722 34.9418 21.4412C34.926 21.3482 34.9892 21.2863 35.0997 21.214C35.5892 20.9249 35.6997 20.5015 35.3997 20.1194C35.2892 19.9851 35.1629 19.8612 34.9892 19.7476C34.247 19.2829 33.5839 18.7872 32.9049 18.2812C32.3996 17.9095 31.768 17.6616 30.9627 17.6306C30.6311 17.6203 30.3311 17.672 30.0785 17.8062C29.9995 17.8475 29.9522 17.8991 29.9522 17.9611C29.9522 18.0437 29.9522 18.1263 29.9679 18.2089C29.9995 18.3742 30.1258 18.5187 30.0943 18.6943C30.0785 18.7872 30.0469 18.8802 29.9206 18.9318C29.3206 19.221 28.6732 19.4481 27.9152 19.5308C27.2047 19.6134 26.5573 19.4688 25.9415 19.2416C25.8941 19.221 25.8625 19.19 25.8468 19.1487C25.7046 18.7976 25.4836 18.4568 25.5152 18.085C25.531 17.8991 25.5783 17.7133 25.6573 17.5377C25.6889 17.4757 25.7046 17.4138 25.752 17.3622C26.0047 16.9801 26.0362 16.5773 26.0678 16.1643C26.0994 15.7512 26.1941 15.3485 26.2731 14.9354C26.2889 14.8218 26.2731 14.6979 26.3836 14.6049C26.6678 14.5636 26.9521 14.543 27.2363 14.6256C27.4889 14.6979 27.6468 14.8218 27.71 14.9973C27.8047 15.2762 27.931 15.5447 28.1995 15.7718C28.5626 16.0713 28.6258 16.0713 29.0995 15.8441C29.3837 15.7099 29.3995 15.6273 29.2258 15.4207C29.21 15.4001 29.1784 15.3691 29.1627 15.3485C29.1153 15.2762 29.0363 15.1935 29.1469 15.1316C29.2416 15.08 29.3679 15.1109 29.4785 15.1522C29.7311 15.2452 29.9995 15.3381 30.268 15.4104C31.0417 15.5963 31.847 15.6273 32.668 15.524C32.9838 15.4827 33.2839 15.4517 33.5997 15.4104C33.9312 15.3794 34.1523 15.4517 34.3102 15.6479C34.3734 15.7305 34.4365 15.8028 34.5313 15.8751C34.1997 15.9887 34.1997 15.9887 34.3418 16.2365C34.4681 16.4637 34.3892 16.6806 34.2155 16.8871C34.0734 17.0317 33.9155 17.1763 33.726 17.2899C33.647 17.3415 33.5681 17.3931 33.5839 17.4654C33.5997 17.641 33.7891 17.7649 34.0576 17.7752C34.3102 17.7752 34.5471 17.7236 34.7997 17.7133C35.7471 17.4344 36.2997 16.9491 36.6155 16.3295C36.8524 15.8545 37.0103 15.3588 37.184 14.8631C37.2314 14.7082 37.3735 14.5946 37.5787 14.5223C37.8945 14.4087 38.2261 14.3055 38.5735 14.2228C38.8104 14.1609 38.9209 14.2022 39.0156 14.3674C39.0946 14.5017 39.0946 14.6462 39.1104 14.7908C39.1419 15.1936 39.1735 15.6066 39.1893 16.0197C39.1893 16.061 39.1893 16.1126 39.2209 16.1539C39.2525 16.2159 39.3314 16.2262 39.4104 16.2159C39.8683 16.1436 40.2157 15.6996 40.0104 15.4207C39.963 15.3588 39.8999 15.2968 39.8367 15.2245C39.6314 14.987 39.742 14.7495 40.1367 14.6153C40.4999 14.4913 40.8473 14.5636 41.0368 14.8011C41.2104 15.0283 41.2262 15.2762 41.2104 15.524C41.1789 16.2882 40.8315 16.9904 40.3894 17.6823C40.1209 18.1057 39.7578 18.4981 39.4735 18.9112C39.2367 19.2416 39.0472 19.5824 38.8893 19.9335C38.8577 19.9955 38.8261 20.0471 38.7788 20.0987C38.7314 20.1607 38.6367 20.1917 38.5419 20.1813C38.4472 20.171 38.3682 20.1297 38.3367 20.0677C38.3209 20.0368 38.3051 19.9955 38.2893 19.9645C38.2735 19.9232 38.2735 19.8612 38.1945 19.8612C38.1314 19.8612 38.084 19.9128 38.0524 19.9541C37.8945 20.2123 37.6577 20.4395 37.3893 20.6564C37.2787 20.7493 37.2629 20.8732 37.2629 20.9868C37.2629 21.4825 37.2314 21.9678 37.1366 22.4532C36.9313 23.6201 36.4419 24.7354 35.3839 25.7061C35.2418 25.83 35.0839 25.9539 34.9418 26.0779C34.9102 26.1088 34.8786 26.1192 34.8471 26.1398Z" fill="#FDF1D6"/>
<path d="M37.6893 8.63606C37.5946 8.32626 37.3577 8.05777 37.1051 7.7996C36.8209 7.50013 36.4735 7.22131 36.0945 6.97347C35.6524 6.68432 35.1629 6.43648 34.6103 6.24027C33.4418 5.8272 32.1786 5.56904 30.8996 5.35218C30.0627 5.2076 29.3522 5.38316 28.6574 5.64132C28.3101 5.76524 28.0258 5.93047 27.6627 6.04406C27.2837 5.77557 26.8416 5.55871 26.3679 5.3625C25.2626 4.87715 24.0625 4.53637 22.7362 4.40212C21.5677 4.2782 20.3993 4.28853 19.2308 4.38147C18.536 4.4331 17.8571 4.52604 17.1623 4.62931C17.0834 4.63964 17.0044 4.64996 16.9255 4.64996C16.8307 4.64996 16.736 4.61898 16.6886 4.56735C16.6254 4.50539 16.7044 4.46408 16.7518 4.42278C16.9412 4.2782 17.1623 4.16461 17.3992 4.06134C18.4571 3.57599 19.5624 3.16292 20.8256 2.93574C20.8572 2.92541 20.9045 2.92541 20.9361 2.91508C21.0624 2.87378 21.1098 2.81182 21.1098 2.7292C21.094 2.63626 20.9835 2.60528 20.873 2.59496C20.6203 2.56398 20.3677 2.56398 20.115 2.56398C19.9887 2.56398 19.8308 2.59496 19.7834 2.50202C19.7361 2.39875 19.894 2.34712 19.9887 2.30581C20.4308 2.09928 20.9361 1.98568 21.4572 1.89274C23.1467 1.58294 24.852 1.36608 26.6047 1.38674C28.6732 1.40739 30.6628 1.71719 32.5576 2.2645C33.8524 2.63626 35.084 3.09064 36.1419 3.69991C38.242 4.91846 39.6631 6.41582 40.2473 8.22299C40.5947 9.29697 40.6736 10.3813 40.5473 11.4759C40.5315 11.6411 40.4842 11.796 40.421 11.9509C40.4052 11.9819 40.3894 12.0232 40.3578 12.0542C40.3105 12.1161 40.2473 12.1988 40.121 12.1884C39.9947 12.1884 39.9631 12.1058 39.9315 12.0335C39.6789 11.5379 39.3946 11.0422 39.0946 10.5671C38.7315 9.97853 38.3367 9.38991 37.8946 8.82194C37.8472 8.729 37.7999 8.66704 37.6893 8.63606Z" fill="#FEFEFE"/>
<path d="M36.8525 26.1088C36.8998 26.0469 36.963 25.9849 37.0104 25.9229C37.0893 25.83 37.1683 25.83 37.2788 25.9023C37.3735 25.9642 37.4367 26.0365 37.5156 26.1088C37.5314 26.1191 37.5314 26.1295 37.5472 26.1295C37.7999 26.4702 37.863 26.8317 37.8946 27.2138C38.0051 28.5149 37.5946 29.7541 37.0419 30.983C36.6314 31.9021 36.1419 32.8108 35.4945 33.6679C35.4313 33.7506 35.3366 33.8538 35.4787 33.9055C35.6208 33.9571 35.7156 33.8538 35.7945 33.7919C36.1577 33.5027 36.4261 33.1826 36.6788 32.8625C37.8788 31.3341 38.7788 29.7438 39.3315 28.0606C39.4578 28.0192 39.442 28.0915 39.4578 28.1328C39.4894 28.2568 39.5052 28.391 39.5368 28.5149C39.7736 29.6922 39.7578 30.8797 39.7262 32.057C39.7104 32.6559 39.6789 33.2549 39.6473 33.8538C39.6315 34.2875 39.5683 34.7213 39.521 35.1447C39.4894 35.4028 39.4578 35.661 39.4262 35.9192C39.4104 36.0947 39.3789 36.1154 39.1104 36.0947C36.8998 36.0431 34.6892 36.0018 32.4628 35.9708C31.6417 35.9605 30.8365 35.9605 30.0154 35.9501C29.6838 35.9501 29.6522 35.9192 29.6364 35.7023C29.589 34.7626 29.3206 33.8538 28.8153 32.9761C28.7995 32.9554 28.7995 32.9347 28.7838 32.9141C28.8627 32.8934 28.9101 32.9451 28.9574 32.9657C29.3206 33.1929 29.668 33.4304 29.9996 33.6783C30.5049 34.05 31.1049 34.3598 31.7365 34.6386C32.226 34.8555 32.6997 34.8762 33.1892 34.6593C33.2207 34.649 33.2523 34.6386 33.2839 34.6283C33.3629 34.587 33.3629 34.5457 33.3313 34.4837C33.2523 34.3288 33.126 34.1946 32.9839 34.0604C32.447 33.5543 31.847 33.0896 31.2628 32.6146C31.2154 32.5836 31.168 32.5423 31.1365 32.5114C31.1049 32.47 31.0101 32.4287 31.0733 32.3771C31.1207 32.3358 31.2154 32.3358 31.2786 32.3461C31.6891 32.3771 32.0997 32.4184 32.4944 32.4391C32.6365 32.4494 32.7786 32.4597 32.9049 32.4494C33.3629 32.4391 33.6629 32.2635 33.6944 31.9537C33.726 31.5097 33.726 31.0656 33.726 30.6216C33.726 30.5493 33.7418 30.477 33.726 30.3944C33.726 30.1465 33.5523 30.002 33.1734 29.94C32.6997 29.8677 32.226 29.8574 31.7365 29.878C31.3891 29.8884 31.0259 29.9194 30.6786 29.9607C30.5838 29.971 30.4417 30.0123 30.4101 29.94C30.3628 29.8574 30.5207 29.8264 30.5996 29.7954C30.9312 29.6715 31.2786 29.5476 31.6102 29.4133C33.3786 28.7318 34.9103 27.8643 36.1261 26.78C36.363 26.5735 36.584 26.3567 36.7577 26.1191C36.8367 26.1398 36.8209 26.1191 36.8525 26.1088Z" fill="#FEFEFE"/>
<path d="M21.773 35.9398C20.0992 35.9811 18.4255 36.0224 16.7675 36.0741C16.1991 36.0947 15.6307 36.1154 15.0622 36.136C14.8569 36.1463 14.6517 36.1463 14.4622 36.1463C14.0516 36.136 13.8464 36.0224 13.7832 35.7643C13.6569 35.2996 13.6253 34.8245 13.6569 34.3495C13.7043 33.4924 13.7832 32.6456 13.9569 31.7988C14.0201 31.4477 14.099 31.0966 14.2253 30.7455C14.2569 30.6835 14.3043 30.6835 14.3359 30.7352C14.399 30.8178 14.4464 30.9107 14.4938 31.0037C14.6517 31.3341 14.8254 31.6646 15.0148 31.9847C15.3622 32.5733 15.8359 33.131 16.3886 33.6473C16.6254 33.8745 16.8939 34.081 17.1149 34.3185C17.257 34.4734 17.4623 34.5973 17.6518 34.7316C17.9676 34.9691 18.2676 35.2169 18.6623 35.4028C19.0887 35.6094 19.815 35.5577 20.1624 35.2892C20.2413 35.2273 20.2571 35.155 20.2887 35.0827C20.3045 34.9484 20.2098 34.8349 20.0992 34.7316C19.3097 33.9881 18.5992 33.2136 18.0781 32.3771C17.5097 31.4374 17.1623 30.4667 16.9254 29.4753C16.7991 28.9693 16.8465 28.453 16.957 27.947C17.0518 27.9366 17.0991 27.9883 17.1465 28.0192C17.7781 28.4426 18.4413 28.8351 19.0729 29.2584C19.515 29.5476 20.0519 29.7645 20.5413 30.0123C20.6045 30.0433 20.6992 30.0536 20.6677 30.1259C20.5256 30.1569 20.3992 30.2085 20.2887 30.2808C20.1782 30.3221 20.0676 30.3324 19.9413 30.3428C19.4834 30.415 19.1834 30.6112 19.1676 30.921C19.136 31.4684 19.1992 32.0053 19.4203 32.5423C19.436 32.5733 19.4518 32.594 19.4676 32.6249C19.6571 32.976 20.0676 33.1103 20.6203 33.1206C21.1572 33.1206 21.694 33.0896 22.2309 33.0587C22.4204 33.0483 22.594 33.0483 22.7835 33.0277C22.8467 33.0174 22.9098 33.0277 22.9572 33.0587C22.5625 33.4098 22.1835 33.7712 21.9467 34.1843C21.9151 34.2462 21.8677 34.3185 21.8361 34.3805C21.8045 34.4321 21.7888 34.4837 21.8677 34.5147C21.9467 34.5457 21.994 34.5044 22.0414 34.4734C22.1046 34.4321 22.1677 34.3805 22.2309 34.3288C22.7993 33.8435 23.4309 33.3891 24.1573 33.007C24.2836 32.9451 24.4257 32.9347 24.5678 32.9347C24.6941 32.9347 24.7415 32.9864 24.6625 33.0483C24.0625 33.5234 23.7309 34.0913 23.2414 34.6077C22.9098 34.9588 22.5625 35.3099 22.1993 35.6507C22.1203 35.7229 22.0572 35.7849 21.994 35.8572C21.9309 35.8985 21.8677 35.9295 21.773 35.9398Z" fill="#FEFEFE"/>
<path d="M26.0047 24.4772C26.2573 24.4772 26.4941 24.4669 26.7468 24.4979C26.9836 24.5185 27.2363 24.4876 27.4731 24.4566C27.7573 24.4256 27.931 24.5082 27.9468 24.6941C27.9468 24.7767 27.9468 24.8593 27.9468 24.9419C27.9468 25.0349 28.01 25.1072 28.1363 25.1381C28.2626 25.1691 28.3889 25.1381 28.4679 25.0555C28.61 24.9316 28.7047 24.7974 28.7363 24.6425C28.7521 24.5495 28.9732 24.3946 29.1153 24.374C29.2258 24.3636 29.289 24.3843 29.2416 24.4669C29.0995 24.7251 29.1153 24.9936 29.0837 25.2621C29.0363 25.6132 29.2416 25.9333 29.4469 26.2534C29.7311 26.6768 29.9364 27.1209 29.9364 27.5959C29.7785 27.6062 29.6995 27.6682 29.7153 27.7921C29.7311 27.8747 29.7627 27.9677 29.7785 28.0503C29.889 28.4117 29.6521 28.6905 29.3679 28.9693C29.1153 29.2172 28.7995 29.434 28.5626 29.6819C28.3258 29.9297 28.1363 30.1982 28.1205 30.4977C28.1205 30.5803 28.0416 30.6113 27.931 30.6113C27.7573 30.6113 27.6152 30.57 27.5047 30.4977C26.4941 29.8987 25.452 29.3411 24.7414 28.5563C24.2835 28.0503 24.1572 27.5133 24.3941 26.9556C24.5046 26.6768 24.6309 26.398 24.7414 26.1192C24.7257 26.1089 24.7257 26.1089 24.7257 26.0985L24.7414 26.0882C24.9309 25.6545 24.9151 25.2311 24.773 24.7974C24.7572 24.7354 24.6625 24.6528 24.8046 24.6115C24.9151 24.5702 25.0257 24.6321 25.1046 24.6838C25.3099 24.818 25.4204 24.9832 25.5783 25.1381C25.6415 25.2001 25.6889 25.293 25.8152 25.2827C25.9257 25.2621 25.9257 25.1691 25.9573 25.0968C26.0678 24.9006 26.0204 24.6838 26.0047 24.4772Z" fill="#FEFEFE"/>
<path d="M2.44596 38.1394C2.39859 38.1394 2.35122 38.1394 2.31964 38.1291C1.97226 38.1084 1.9091 38.0568 1.9091 37.8296C1.9091 35.8882 1.89331 33.9571 1.89331 32.0157C1.9091 31.9847 1.95647 31.9951 1.98805 31.9847C2.71439 31.8195 3.42494 31.6646 4.15128 31.4994C4.54603 31.4064 4.95657 31.3238 5.33553 31.2206C5.98292 31.0553 6.61453 31.0657 7.24613 31.2619C7.2935 31.3032 7.24613 31.3341 7.21455 31.3651C6.70927 31.8815 6.39347 32.4494 6.06187 33.0174C5.77765 33.4821 5.52501 33.9675 5.28816 34.4425C5.24079 34.5457 5.17763 34.6387 5.09868 34.742C4.5934 35.4029 4.08812 36.0534 3.59863 36.7143C3.28283 37.1481 2.95124 37.5715 2.63544 38.0052C2.55649 38.0465 2.5407 38.1084 2.44596 38.1394Z" fill="#FEFEFE"/>
<path d="M47.4475 35.661C47.0685 34.8142 46.6896 33.9984 46.3106 33.1826C45.7264 31.9124 45.1263 30.6422 44.5421 29.372C44.4947 29.2688 44.4632 29.1655 44.4316 29.0622C44.4 28.928 44.479 28.8557 44.6842 28.8454C44.9527 28.8351 45.2053 28.8867 45.4579 28.928C46.8948 29.1242 48.3317 29.3204 49.7686 29.5063C49.9265 29.527 49.9265 29.5579 49.8949 29.6405C49.1212 31.5613 48.3475 33.4821 47.558 35.4028C47.5264 35.4751 47.4949 35.5577 47.4475 35.661Z" fill="#FEFEFE"/>
<path d="M12.1095 12.0852C12.1411 11.3003 12.2516 10.5155 12.4253 9.73068C12.52 9.32794 12.4569 8.93553 12.1411 8.56377C11.9674 8.36756 11.8095 8.16103 11.6674 7.96482C11.541 7.78927 11.7147 7.61371 11.9989 7.62404C13.0095 7.64469 13.8937 7.39685 14.7464 7.07673C15.5991 6.7566 16.3886 6.35386 17.257 6.07504C18.0623 5.81687 18.8992 5.62067 19.7992 5.62067C19.8939 5.62067 20.0045 5.62067 20.0992 5.64132C20.2255 5.6723 20.2413 5.73426 20.1308 5.78589C20.0676 5.81687 20.0045 5.83753 19.9413 5.85818C18.4255 6.27125 17.336 6.98379 16.5465 7.90286C16.2307 8.2643 15.8833 8.59475 15.3464 8.84259C14.7464 9.11108 14.5253 9.52415 14.3201 9.94754C13.8148 10.9596 13.5779 12.0026 13.5622 13.0662C13.5622 13.1385 13.5622 13.2108 13.5306 13.2831C13.5148 13.314 13.499 13.345 13.4674 13.376C13.3727 13.4689 12.6937 13.6238 12.5358 13.5929C12.4095 13.5619 12.3779 13.4999 12.3463 13.4276C12.2516 13.2211 12.1884 13.0042 12.1568 12.7874C12.1253 12.5602 12.0937 12.3227 12.1095 12.0852Z" fill="#FEFEFE"/>
<path d="M32.5417 21.5651C31.5312 21.5135 30.5206 21.4412 29.51 21.3896C27.3468 21.2966 25.1994 21.276 23.0677 21.5548C22.7203 21.5961 22.373 21.6167 22.0098 21.5754C21.8045 21.5445 21.6308 21.4825 21.5045 21.3792C21.3624 21.2656 21.394 21.2037 21.5992 21.1417C21.7571 21.0901 21.9308 21.0488 22.0887 21.0075C22.4203 20.9042 22.7045 20.77 22.9414 20.5944C23.0519 20.5118 23.1625 20.4395 23.273 20.3569C23.7151 20.0471 24.4099 19.9748 24.9783 20.1813C25.6573 20.4395 26.3994 20.5428 27.1889 20.5634C27.631 20.5737 27.9942 20.4705 28.2468 20.233C28.4363 20.0574 28.689 19.9541 28.989 19.9128C29.4627 19.8406 29.8416 19.6547 30.2206 19.4688C30.4732 19.3449 30.6469 19.3449 30.8996 19.4688C31.168 19.603 31.3891 19.7786 31.5785 19.9645C31.7838 20.1607 31.9733 20.3569 32.1786 20.5531C32.447 20.8009 32.8259 20.9662 33.2681 21.0488C33.3154 21.0591 33.347 21.0591 33.3944 21.0798C33.5997 21.152 33.6312 21.276 33.4575 21.3896C33.2049 21.5548 32.8733 21.5754 32.5417 21.5651Z" fill="#FEFEFE"/>
<path d="M18.1413 17.486C17.8886 17.3621 17.5886 17.2692 17.3517 17.1349C16.8623 16.8561 16.5307 16.5257 16.3096 16.1332C16.2464 16.0093 16.2938 15.9164 16.4675 15.8544H16.4833C16.8623 15.6789 17.2096 15.6582 17.5412 15.9164C17.636 15.9887 17.7623 16.0403 17.9044 16.061C18.1255 16.1023 18.2992 16.0919 18.4413 15.968C18.6939 15.7615 18.9781 15.5859 19.3413 15.462C19.8308 15.2968 20.3519 15.3071 20.8729 15.3587C21.3782 15.4104 21.8835 15.5033 22.4046 15.4517C22.594 15.431 22.7677 15.4104 22.9572 15.3691C23.0362 15.3484 23.0993 15.3278 23.1783 15.3071C23.2572 15.2968 23.3362 15.2761 23.3993 15.3381C23.4467 15.3897 23.3993 15.431 23.352 15.4723C23.2256 15.5653 23.0993 15.6582 22.9888 15.7512C22.7519 15.8647 22.4677 15.9164 22.1835 15.968C21.8993 16.0196 21.8045 16.0919 21.8677 16.2778C21.9309 16.4947 21.8677 16.6806 21.694 16.8664C21.4256 17.1556 21.0466 17.3518 20.5571 17.4654C20.4624 17.486 20.3676 17.4964 20.3519 17.5687C20.2571 17.7132 20.3834 17.8578 20.6519 17.8785C20.8571 17.8991 21.0624 17.8681 21.2677 17.8475C21.6151 17.8165 21.9782 17.7752 22.3098 17.6926C22.3572 17.6822 22.4203 17.6616 22.4677 17.6926C22.0256 17.9507 21.7098 18.2605 21.5835 18.6426C21.5519 18.7459 21.4572 18.8079 21.315 18.8388C20.9519 18.9214 20.6203 19.035 20.2887 19.1383C20.0676 19.1796 19.9255 19.1486 19.7992 19.0247C19.515 18.7252 19.2308 18.4258 19.0255 18.1056C18.9623 18.0127 18.915 17.9198 18.8992 17.8165C18.8834 17.7236 18.8202 17.6719 18.6781 17.6409C18.5044 17.6203 18.2992 17.579 18.1413 17.486Z" fill="#FDF1D6"/>
<path d="M2.44598 38.1394C3.14074 37.2203 3.81972 36.3012 4.53027 35.3925C5.00397 34.7936 5.36714 34.1636 5.71452 33.5337C6.04611 32.9141 6.39349 32.3048 6.8514 31.7162C6.96193 31.5613 7.10404 31.4271 7.23036 31.2722C7.54616 31.3341 7.86196 31.4167 8.17776 31.5097C8.38303 31.5716 8.49356 31.7782 8.4304 31.9744C8.36724 32.1912 8.19355 32.3874 8.06723 32.594C6.91456 34.3495 5.76189 36.105 4.76712 37.9122C4.70396 38.0258 4.62501 38.1291 4.54606 38.2427C4.51448 38.2943 4.4829 38.3253 4.38816 38.3149C3.74077 38.253 3.09337 38.2117 2.44598 38.1394Z" fill="#DFC091"/>
<path d="M21.7729 6.26099C21.8361 6.47785 21.5834 6.61209 21.4098 6.74634C20.9045 7.13875 20.5097 7.57247 20.1939 8.03717C19.5307 9.01821 19.1202 10.0405 18.7254 11.0732C18.6465 11.2694 18.6307 11.476 18.6149 11.6825C18.5675 12.0439 18.4886 12.395 18.3781 12.7461C17.6991 12.7668 17.0201 12.7978 16.3412 12.8184C16.1359 12.8288 15.9622 12.7565 15.9622 12.6325C15.9464 12.4157 15.9148 12.1988 16.0096 11.982C16.0569 11.858 16.1517 11.7445 16.3412 11.6928C16.9096 11.5276 17.0201 11.2075 17.0991 10.846C17.3675 9.66879 17.8886 8.55351 18.9623 7.56215C19.357 7.19039 19.7834 6.83928 20.3676 6.58111C20.7782 6.39523 21.2519 6.28164 21.7729 6.26099Z" fill="#DFC091"/>
<path d="M21.8835 26.0881C20.9045 25.9126 20.1466 25.5202 19.515 25.0245C18.5044 24.219 17.9044 23.2793 17.5886 22.2776C17.4465 21.8232 17.6518 21.3792 18.1728 21.0384C18.4255 20.8732 18.7571 20.8318 19.0887 20.8318C19.3413 20.8318 19.4834 20.9661 19.4992 21.1623C19.5782 22.1124 19.815 23.0418 20.2887 23.9505C20.415 24.1777 20.5571 24.3945 20.794 24.5804C20.9993 24.756 21.1729 24.7353 21.2993 24.5391C21.394 24.4049 21.473 24.2706 21.5677 24.1467C21.6151 24.0641 21.694 24.0021 21.8519 24.0021C22.0098 24.0021 22.0256 24.0951 22.0572 24.1674C22.2309 24.6114 22.3888 25.0555 22.6098 25.4995C22.6572 25.5924 22.7204 25.6957 22.7677 25.7887C22.8309 25.9022 22.7993 26.0055 22.6572 26.0881C22.6256 26.1294 22.5467 26.1088 22.4993 26.1294C22.373 26.1294 22.2625 26.1294 22.1361 26.1294C22.0572 26.1088 21.9467 26.1398 21.8835 26.0881Z" fill="#DFC091"/>
<path d="M39.0946 36.1051C39.3472 36.0844 39.3472 36.0844 39.363 35.9192C39.4262 35.3925 39.4894 34.8555 39.5367 34.3289C39.5525 34.174 39.5683 34.0191 39.5841 33.8642C39.5999 33.3375 39.5999 32.8109 39.6315 32.2842C39.6788 31.582 39.663 30.8798 39.663 30.1776C39.6473 29.6819 39.5683 29.1862 39.4894 28.6905C39.4578 28.5046 39.4262 28.3188 39.4104 28.1329C39.4104 28.1122 39.442 28.0606 39.3472 28.0709C39.3946 27.9057 39.442 27.7405 39.4894 27.5752C39.5367 27.41 39.663 27.379 39.8841 27.472C40.2473 27.6165 40.3578 27.8541 40.4368 28.1019C40.5315 28.4117 40.5473 28.7318 40.5947 29.0416C40.642 29.4237 40.6894 29.8161 40.7368 30.1982C40.7683 30.5183 40.7999 30.8385 40.8157 31.1586C40.9105 32.3668 40.9578 33.575 40.9894 34.7833C41.0052 35.1137 41.0052 35.4442 41.0052 35.7746C40.9894 36.0121 40.9105 36.1154 40.4841 36.1257C40.0104 36.1464 39.5525 36.1154 39.0946 36.1051Z" fill="#DFC091"/>
<path d="M20.2413 35.0827C20.3045 35.248 20.1308 35.3409 19.9571 35.4235C19.4992 35.6301 18.8518 35.5887 18.4413 35.3512C18.0465 35.1137 17.6834 34.8556 17.3518 34.5767C16.4991 33.8745 15.7096 33.1413 15.1412 32.3255C14.8412 31.9021 14.6359 31.4478 14.399 31.0037C14.3517 30.9211 14.3043 30.8385 14.2569 30.7455C14.2253 30.6836 14.2096 30.7249 14.178 30.7352C14.2253 30.5183 14.3201 30.3118 14.4148 30.1053C14.4938 29.9297 14.9675 29.7439 15.2359 29.7748C15.378 29.7852 15.4254 29.8574 15.4728 29.9297C15.8991 30.7042 16.357 31.4787 16.8465 32.2429C17.3044 32.9451 17.9518 33.5647 18.6308 34.1843C18.9624 34.4941 19.3255 34.7936 19.7676 35.0414C19.815 35.0724 19.8624 35.0931 19.9098 35.124C20.0992 35.2067 20.1466 35.1963 20.2413 35.0827Z" fill="#DFC091"/>
<path d="M20.6361 30.1156C20.4466 29.971 20.194 29.8781 19.9572 29.7748C19.4045 29.5166 18.915 29.2172 18.4413 28.9074C17.9518 28.5769 17.4308 28.2671 16.9255 27.947C16.9571 27.6682 17.0518 27.3997 17.3202 27.1622C17.4465 27.0486 17.5729 27.0486 17.6992 27.1518C18.9782 28.1638 20.5572 28.9383 22.2625 29.5993C22.3888 29.6406 22.4994 29.6922 22.6099 29.7438C22.6888 29.7851 22.7678 29.8471 22.7362 29.9091C22.7046 29.9813 22.5941 29.971 22.4994 29.9813C22.1204 30.002 21.7414 29.9813 21.3625 30.0123C21.1256 30.0433 20.8888 30.0846 20.6361 30.1156Z" fill="#DFC091"/>
<path d="M29.9522 18.2296C29.9048 18.1676 29.889 18.0953 29.889 18.0334C29.8732 17.8578 30.1732 17.6719 30.5206 17.6409C31.3101 17.5583 31.9733 17.7545 32.5733 18.0643C33.0628 18.3225 33.4102 18.6736 33.8365 18.9731C34.2471 19.2622 34.6892 19.5204 35.0839 19.8095C35.4629 20.0884 35.6682 20.3982 35.5261 20.7803C35.4629 20.9661 35.3208 21.121 35.0997 21.2346C34.9734 21.3069 34.8945 21.3792 34.926 21.4825C34.926 21.5031 34.9102 21.5238 34.8945 21.5341C34.8629 21.2863 34.9102 21.0281 34.8471 20.7803C34.7997 20.5427 34.6418 20.3569 34.3102 20.2639C33.5523 20.0471 33.0312 19.6753 32.5891 19.2416C32.2259 18.9008 31.8786 18.56 31.3575 18.3225C31.0417 18.1779 30.7101 18.0643 30.3154 18.0127C30.0311 17.9921 29.968 18.0334 29.9522 18.2296Z" fill="#DFC091"/>
<path d="M22.9098 33.0484C22.3256 33.0793 21.7256 33.1103 21.1413 33.1413C20.8097 33.162 20.4781 33.162 20.1623 33.1207C19.7044 33.0587 19.4834 32.8315 19.3571 32.5733C19.2149 32.2842 19.1676 31.9847 19.136 31.6853C19.1202 31.4684 19.0728 31.2515 19.0886 31.0347C19.1044 30.5596 19.5465 30.2808 20.2729 30.2808C20.2097 30.3944 20.1939 30.508 20.1939 30.6319C20.1939 31.0656 20.2097 31.4994 20.1623 31.9331C20.115 32.3668 20.5571 32.5114 21.0466 32.563C21.694 32.625 22.3414 32.5424 22.9888 32.532C23.0203 32.532 23.0519 32.5217 23.0835 32.5217C23.2098 32.5217 23.3519 32.5114 23.4151 32.5837C23.4783 32.656 23.3677 32.7076 23.3046 32.7696C23.1625 32.8522 23.0677 32.9658 22.9098 33.0484Z" fill="#DFC091"/>
<path d="M18.1412 17.4861C18.3781 17.548 18.5991 17.6203 18.8518 17.6616C18.9465 17.6823 18.9623 17.7339 18.9623 17.7752C18.9939 18.0747 19.2465 18.3122 19.4518 18.5704C19.5623 18.7046 19.7202 18.8286 19.815 18.9731C19.9255 19.1177 20.0834 19.1487 20.3045 19.1487C20.036 19.2726 19.7676 19.4068 19.4834 19.5204C19.0413 19.7063 18.4886 19.696 18.1254 19.4585C17.3991 18.9938 16.8149 18.4671 16.5622 17.8062C16.5307 17.7443 16.5149 17.6823 16.6096 17.641C16.7043 17.5997 16.7833 17.641 16.8622 17.672C17.0517 17.7649 17.2412 17.8475 17.4623 17.9095C17.636 17.9611 17.8096 18.0024 17.9675 17.9095C18.1412 17.8165 18.2202 17.61 18.1412 17.4861Z" fill="#DFC091"/>
<path d="M21.7729 35.9398C21.8045 35.9192 21.8519 35.9089 21.8677 35.8882C22.6098 35.1447 23.3677 34.3908 23.9993 33.606C24.173 33.3995 24.3309 33.1826 24.5994 33.0174C24.6152 33.0071 24.6152 32.9864 24.6467 32.9658C24.4573 32.9451 24.2836 32.9864 24.1257 33.0071C24.552 32.7696 24.9941 32.5424 25.5152 32.4081C25.6099 32.3875 25.7205 32.3358 25.8152 32.3978C25.9099 32.4598 25.8784 32.5424 25.8468 32.6043C25.7678 32.7902 25.6573 32.9658 25.531 33.1413C24.931 33.9778 24.2362 34.7833 23.4309 35.5474C23.3362 35.6507 23.2098 35.7333 23.0677 35.8056C22.9256 35.8779 22.7677 35.9192 22.5782 35.9192C22.3256 35.9295 22.0572 35.9605 21.7729 35.9398Z" fill="#DFC091"/>
<path d="M33.2997 34.6387C33.0628 34.8453 32.3365 34.9279 31.9733 34.773C31.247 34.4735 30.5522 34.1534 29.9838 33.7196C29.6364 33.4615 29.2574 33.2136 28.8943 32.9658C28.8627 32.9451 28.8311 32.9348 28.7837 32.9142C28.6732 32.7696 28.5627 32.625 28.4521 32.4701C28.4206 32.4288 28.4048 32.3772 28.4521 32.3359C28.5153 32.2842 28.61 32.2842 28.689 32.3049C28.7837 32.3359 28.8785 32.3669 28.9732 32.4082C29.968 32.8006 30.8838 33.2859 31.7523 33.7919C32.1786 34.0398 32.5891 34.2773 32.9681 34.5561C33.0628 34.6181 33.1734 34.6387 33.2997 34.6387Z" fill="#DFC091"/>
<path d="M26.3679 14.6153C26.3205 14.8631 26.2731 15.1006 26.2416 15.3485C26.1942 15.6273 26.131 15.9061 26.1152 16.185C26.0837 16.598 26.0363 17.0111 25.7994 17.4035C25.4994 17.8785 25.5152 18.3639 25.7836 18.8492C25.8626 18.9835 25.8942 19.1177 25.9573 19.252C25.3415 19.0145 24.9152 18.684 24.7257 18.2296C24.6626 18.0747 24.7415 17.9095 24.8204 17.7443C24.9468 17.4345 25.1205 17.135 25.231 16.8252C25.2942 16.6393 25.3257 16.4534 25.3257 16.2676C25.3415 15.9681 25.3257 15.6686 25.4047 15.3691C25.4678 15.1626 25.61 14.9767 25.7994 14.8012C25.91 14.6669 26.131 14.6359 26.3679 14.6153Z" fill="#DFC091"/>
<path d="M20.3361 17.5583C20.2729 17.486 20.3676 17.4757 20.4466 17.4551C21.094 17.3311 21.5519 17.0523 21.8045 16.6496C21.8677 16.5463 21.8677 16.4327 21.8361 16.3191C21.773 16.0816 21.8519 15.9887 22.1993 15.9267C22.4361 15.8854 22.6572 15.8544 22.8625 15.7615C22.894 15.7512 22.9414 15.7098 22.9888 15.7512C23.0046 15.9783 23.2572 16.1126 23.4783 16.2572C23.5888 16.2985 23.5256 16.3604 23.5099 16.4121C23.352 16.7838 23.0362 17.0833 22.5151 17.2795C21.8993 17.5067 21.2361 17.5996 20.5255 17.5893C20.4624 17.5893 20.3992 17.5996 20.3361 17.5583Z" fill="#FEFEFE"/>
<path d="M27.3468 22.2983C28.1679 22.3086 28.9732 22.3396 29.7785 22.3912C29.8732 22.4015 29.9996 22.3912 29.9996 22.4738C30.0153 22.5461 29.8732 22.5564 29.7943 22.5668C29.0522 22.7217 28.2942 22.794 27.5047 22.8146C27.0626 22.8249 26.6205 22.8456 26.1784 22.8559C25.7363 22.8662 25.3573 22.763 25.0099 22.5771C24.9468 22.5461 24.8994 22.5048 24.9152 22.4532C24.931 22.3912 25.0257 22.3912 25.1046 22.3809C25.8468 22.3396 26.5889 22.2879 27.3468 22.2983Z" fill="#FEFEFE"/>
<path d="M20.3361 17.5584C21.0782 17.5687 21.8046 17.4964 22.4677 17.2589C23.0362 17.0524 23.3678 16.7322 23.4941 16.3192C23.4941 16.2985 23.4941 16.2779 23.4941 16.2572C23.7309 16.2572 23.8888 16.1539 24.0625 16.061C24.1099 16.0403 24.1573 15.9887 24.2204 16.0094C24.2836 16.03 24.2678 16.0817 24.2678 16.1333C24.1257 16.7219 23.6204 17.1763 22.9099 17.5274C22.7678 17.5893 22.6256 17.6513 22.4835 17.7133C21.994 17.8269 21.473 17.8785 20.9519 17.9301C20.6203 17.9611 20.3993 17.9095 20.2729 17.7442C20.2098 17.6616 20.2098 17.5997 20.3361 17.5584Z" fill="#DFC091"/>
<path d="M20.7939 13.8821C21.1887 13.9131 21.5677 13.975 21.8203 14.2022C21.8519 14.2332 21.8835 14.2538 21.8992 14.2848C21.9308 14.3365 21.9624 14.3984 21.8992 14.45C21.8361 14.4914 21.7571 14.481 21.6624 14.4707C21.4729 14.4397 21.2676 14.4294 21.0624 14.4294C20.4939 14.4294 19.9729 14.5533 19.4518 14.6979C19.136 14.7908 18.8202 14.9044 18.4728 14.9457C18.3149 14.9664 18.1412 14.987 17.9833 14.9354C17.8096 14.8838 17.7938 14.8115 17.936 14.7289C17.9833 14.7082 18.0307 14.6876 18.0781 14.6772C18.4886 14.574 18.8518 14.4191 19.2149 14.2745C19.6413 14.1093 20.0992 13.975 20.5729 13.9027C20.6676 13.8924 20.7308 13.8924 20.7939 13.8821Z" fill="#DFC091"/>
<path d="M32.3207 14.5533C32.0049 14.5533 31.7049 14.6049 31.4048 14.6462C31.3575 14.6565 31.3101 14.6565 31.2627 14.6565C31.1838 14.6565 31.1206 14.6462 31.089 14.6049C31.0417 14.5533 31.0733 14.512 31.1206 14.481C31.6733 14.1402 32.3838 13.913 33.1417 14.1918C33.3154 14.2538 33.4733 14.3364 33.6312 14.419C34.026 14.6462 34.3734 14.9147 34.8629 15.0696C35.005 15.1109 34.9892 15.1729 34.8629 15.2245C34.7207 15.2865 34.5786 15.2452 34.4365 15.2142C34.0102 15.1316 33.6628 14.9663 33.3312 14.7805C33.0312 14.6256 32.6996 14.5533 32.3207 14.5533Z" fill="#DFC091"/>
<path d="M33.5207 17.486C33.4259 17.4034 33.5365 17.3621 33.5996 17.3208C33.8049 17.1969 33.9944 17.0523 34.1365 16.8974C34.326 16.6702 34.4049 16.4431 34.2154 16.1952C34.0575 15.9887 34.1365 15.9061 34.4997 15.9061C34.7365 15.9577 34.9891 15.9577 35.226 15.9784C35.5892 16.0093 35.6681 16.0919 35.5734 16.3191C35.4313 16.7012 35.0839 16.98 34.6102 17.2072C34.5312 17.2485 34.4681 17.2795 34.3891 17.3208C34.1365 17.4344 33.8365 17.4654 33.5207 17.486Z" fill="#FEFEFE"/>
<path d="M13.6569 14.7702C13.6411 15.1935 13.8148 15.5963 13.9411 15.999C13.9727 16.092 13.9569 16.1746 13.8148 16.2159C13.6726 16.2572 13.5621 16.2056 13.4832 16.1229C13.0884 15.6996 12.82 15.2452 12.6779 14.7598C12.6147 14.5636 12.6937 14.5017 12.9779 14.4397C13.1042 14.4087 13.2305 14.3777 13.3568 14.3571C13.5463 14.3364 13.6411 14.3881 13.6569 14.512C13.6726 14.6049 13.6569 14.6875 13.6569 14.7702Z" fill="#FEFEFE"/>
<path d="M16.4991 14.6876C16.1833 14.6876 16.0254 14.543 16.1201 14.3571C16.3096 14.0267 16.6728 13.8201 17.2254 13.7892C17.5255 13.7685 17.8097 13.7478 18.1097 13.7272C18.1886 13.7169 18.2676 13.7272 18.3307 13.7478C18.4886 13.7788 18.5202 13.8718 18.4097 13.9544C18.3623 13.9854 18.315 14.006 18.2676 14.0267C17.7623 14.2022 17.2886 14.4088 16.8307 14.6153C16.7202 14.6566 16.6254 14.6979 16.4991 14.6876Z" fill="#DFC091"/>
<path d="M23.0993 18.56C23.1151 18.3535 23.1782 18.1883 23.3361 18.0437C23.5098 17.8991 23.8098 17.8578 24.0467 17.9507C24.1414 17.9921 24.173 18.0334 24.1256 18.116C23.952 18.3741 23.9362 18.6323 24.1099 18.8905C24.1414 18.9318 24.1572 18.9731 24.1572 19.0247C24.1888 19.2106 24.0151 19.3035 23.7467 19.2313C23.3993 19.1486 23.2414 18.9628 23.1467 18.7459C23.1151 18.6736 23.0835 18.6013 23.0993 18.56Z" fill="#DFC091"/>
<path d="M34.2155 13.7684C34.5787 13.7891 34.9103 13.7891 35.2261 13.8717C35.5892 13.9646 35.8577 14.1608 35.8419 14.3674C35.8261 14.5946 35.6682 14.7495 35.2576 14.6049C34.9892 14.512 34.7524 14.388 34.5155 14.2538C34.326 14.1505 34.1523 14.0369 33.9313 13.9543C33.8681 13.9337 33.805 13.9027 33.8208 13.851C33.8365 13.7994 33.8997 13.7788 33.9787 13.7684C34.0734 13.7684 34.1681 13.7684 34.2155 13.7684Z" fill="#DFC091"/>
<path d="M26.2415 35.9192C26.0994 35.9192 25.9573 35.9295 25.831 35.9192C25.6731 35.9088 25.6257 35.8469 25.7363 35.7746C26.1152 35.4854 26.3994 35.1653 26.6205 34.8142C26.6363 34.7832 26.6521 34.7626 26.6837 34.7419C26.6995 34.7213 26.731 34.7006 26.7784 34.7006C26.8258 34.7006 26.8416 34.7316 26.8416 34.7523C26.8574 34.8555 26.8889 34.9588 26.9047 35.0621C26.9363 35.2583 26.9521 35.4545 26.9679 35.6507C26.9837 35.8469 26.8889 35.9088 26.5889 35.9192C26.4468 35.9192 26.3521 35.9192 26.2415 35.9192Z" fill="#FEFEFE"/>
<path d="M14.9043 14.0886C14.7621 14.0886 14.62 14.0886 14.4937 14.0886C14.3674 14.0886 14.3042 14.068 14.3042 13.975C14.3042 13.9337 14.3042 13.9027 14.3042 13.8614C14.2411 13.5929 14.3358 13.6239 14.6516 13.6136C14.8727 13.6136 15.0779 13.6033 15.299 13.5929C15.4253 13.5826 15.5043 13.6239 15.5201 13.7065C15.5201 13.7168 15.5201 13.7272 15.5201 13.7272C15.5516 14.1093 15.5832 14.0576 15.0779 14.0576C15.0148 14.0576 14.9674 14.0576 14.9043 14.0576C14.9043 14.0783 14.9043 14.0783 14.9043 14.0886Z" fill="#FEFEFE"/>
<path d="M37.0577 13.7375C37.1998 13.7375 37.3419 13.7375 37.484 13.7375C37.5314 13.7375 37.5945 13.7271 37.6261 13.7581C37.7366 13.8614 37.6419 13.9646 37.6261 14.0679C37.6103 14.1402 37.5156 14.1609 37.4208 14.1609C37.1524 14.1609 36.884 14.1609 36.6313 14.1505C36.4892 14.1402 36.4103 14.0886 36.4103 13.9853C36.4103 13.7065 36.4103 13.7065 36.8366 13.7065C36.9156 13.7065 36.9945 13.7065 37.0577 13.7065C37.0577 13.7271 37.0577 13.7375 37.0577 13.7375Z" fill="#FEFEFE"/>
<path d="M33.5207 17.4861C33.8049 17.4035 34.1207 17.3932 34.4049 17.3105C34.3576 17.4345 34.4207 17.5377 34.4839 17.641C34.5312 17.7236 34.6418 17.7339 34.7681 17.7236C34.4997 17.7856 34.2312 17.8269 33.947 17.8166C33.7891 17.8166 33.5207 17.6617 33.4891 17.5584C33.4733 17.5377 33.5049 17.5171 33.5207 17.4861Z" fill="#DFC092"/>
<path d="M21.8835 26.0881C21.9624 26.1088 22.0572 26.0881 22.1203 26.1295C21.4571 26.1295 20.8097 26.1295 20.1466 26.1295C18.5044 26.1295 16.8464 26.1295 15.2043 26.1295C15.2201 26.1088 15.2201 26.0985 15.2359 26.0778C15.2832 26.1191 15.3464 26.1088 15.4096 26.1088C17.5096 26.1088 19.6097 26.1088 21.7098 26.1088C21.7729 26.1088 21.8361 26.1191 21.8835 26.0881Z" fill="#422425"/>
<path d="M22.4835 26.1295C22.5309 26.1192 22.5941 26.0985 22.6414 26.0882C22.7046 26.1295 22.7677 26.1088 22.8467 26.1088C23.4941 26.1088 24.1257 26.1088 24.7731 26.1088C24.7731 26.1192 24.7731 26.1295 24.7573 26.1295C23.9994 26.1295 23.2414 26.1295 22.4835 26.1295Z" fill="#422425"/>
<path d="M36.8525 26.1088C36.8525 26.1295 36.8367 26.1502 36.8209 26.1605C36.7735 26.1295 36.7103 26.1398 36.663 26.1398C36.063 26.1398 35.4629 26.1398 34.8629 26.1398C34.8787 26.1192 34.9103 26.1088 34.9261 26.0882C34.9892 26.1295 35.0524 26.1088 35.1156 26.1088C35.6998 26.1088 36.284 26.1088 36.8525 26.1088Z" fill="#432627"/>
<path d="M37.5313 26.1295C37.5155 26.1192 37.5155 26.1088 37.4998 26.1088C38.084 26.1088 38.6524 26.1088 39.2367 26.1088C39.2998 26.1088 39.363 26.1192 39.4103 26.0882C39.4419 26.0985 39.4735 26.1088 39.4893 26.1398C38.8577 26.1295 38.1945 26.1295 37.5313 26.1295Z" fill="#432526"/>
<path d="M1.97224 31.9847C1.94066 31.995 1.90908 32.0053 1.8775 32.0157C1.8775 31.6955 1.8775 31.3754 1.8775 31.0656C1.89329 31.0656 1.89329 31.0656 1.90908 31.0656C1.90908 31.3341 1.90908 31.6026 1.90908 31.8608C1.92487 31.9124 1.89329 31.9537 1.97224 31.9847Z" fill="#3C2424"/>
<path d="M7.4198 38.5628C7.46717 38.5422 7.51454 38.5422 7.56191 38.5525C7.51454 38.5938 7.46717 38.5628 7.4198 38.5628Z" fill="#482426"/>
<path d="M43.9895 41.5575C43.9895 41.7228 43.8 41.8467 43.5632 41.857C43.3105 41.857 43.121 41.7331 43.121 41.5782C43.121 41.413 43.3105 41.2684 43.5632 41.2787C43.7842 41.2581 43.9737 41.3923 43.9895 41.5575Z" fill="#FBFBFB"/>
<path d="M33.0628 32.9968C33.1259 32.8935 33.1575 32.8315 33.1891 32.7593C33.2207 32.6973 33.2523 32.6663 33.3628 32.6766C33.4891 32.687 33.426 32.7386 33.4417 32.7799C33.4417 32.8832 33.4417 32.9761 33.4417 33.0794C33.4417 33.1104 33.4417 33.1413 33.3786 33.1413C33.3154 33.1413 33.3154 33.1104 33.3154 33.0794C33.3154 32.9968 33.3154 32.9245 33.3154 32.8212C33.2207 32.9142 33.2049 33.0071 33.1575 33.0794C33.1417 33.1104 33.1259 33.131 33.0786 33.131C33.0154 33.131 32.9996 33.1104 32.9996 33.0794C32.9522 32.9968 32.9049 32.9142 32.8259 32.8315C32.8259 32.9142 32.8259 32.9864 32.8259 33.0691C32.8259 33.1 32.8259 33.131 32.7628 33.131C32.6996 33.131 32.6996 33.1 32.6996 33.0691C32.6996 32.9658 32.6996 32.8522 32.6996 32.7489C32.6996 32.7179 32.668 32.6663 32.7786 32.6766C32.8417 32.6766 32.9207 32.6663 32.9365 32.7283C32.9523 32.8109 32.9996 32.8935 33.0628 32.9968Z" fill="#262422"/>
<path d="M32.2891 32.6766C32.3523 32.6766 32.4312 32.6766 32.4944 32.6766C32.526 32.6766 32.5733 32.6766 32.5733 32.7076C32.5733 32.7385 32.5418 32.7592 32.5102 32.7489C32.3207 32.7282 32.3523 32.8108 32.3523 32.8831C32.3523 32.9244 32.3681 32.9657 32.3523 33.007C32.3365 33.0483 32.4154 33.131 32.2733 33.131C32.147 33.131 32.226 33.0587 32.2102 33.0174C32.1944 32.9761 32.2102 32.9347 32.2102 32.8934C32.2102 32.8211 32.2418 32.7282 32.0365 32.7489C32.0049 32.7489 31.9733 32.7385 31.9733 32.7179C31.9733 32.6869 32.0049 32.6766 32.0365 32.6766C32.1154 32.6766 32.2102 32.6766 32.2891 32.6766Z" fill="#282625"/>
<path d="M43.7368 41.7434C43.6579 41.7227 43.6737 41.6814 43.6737 41.6505C43.6421 41.5988 43.5789 41.5885 43.5158 41.5885C43.421 41.5885 43.4368 41.6298 43.4368 41.6608C43.4368 41.6918 43.4526 41.7227 43.3895 41.7227C43.3263 41.7227 43.3421 41.6814 43.3421 41.6608C43.3421 41.6092 43.3421 41.5575 43.3421 41.5162C43.3421 41.3716 43.4842 41.3097 43.6895 41.3716C43.7368 41.382 43.7526 41.4026 43.7684 41.4336C43.8158 41.4956 43.6579 41.5265 43.721 41.5782C43.7684 41.6401 43.7842 41.6918 43.7368 41.7434Z" fill="#2B2927"/>
<path d="M43.5473 41.4233C43.6105 41.4233 43.6737 41.444 43.6579 41.4956C43.6421 41.5473 43.5631 41.5576 43.5 41.5576C43.4052 41.5576 43.421 41.5163 43.421 41.4853C43.421 41.413 43.4842 41.413 43.5473 41.4233Z" fill="#EDECEC"/>
</svg>
