<svg width="28" height="34" viewBox="0 0 28 34" fill="none" xmlns="http://www.w3.org/2000/svg">
<path d="M12.5922 3.67526C9.95214 3.67526 8.60874 3.95729 7.37216 4.61814C6.34087 5.16075 5.49834 6.00329 4.95572 7.03457C4.29488 8.26949 4.01285 9.61455 4.01285 12.2529V21.7952C4.01285 24.4352 4.29488 25.7786 4.95572 27.0152C5.51811 28.0666 6.32081 28.8693 7.37216 29.4316C8.60708 30.0925 9.95214 30.3745 12.5922 30.3745H15.4592C18.0993 30.3745 19.4426 30.0925 20.6792 29.4316C21.7105 28.889 22.5531 28.0465 23.0957 27.0152C23.7565 25.7803 24.0385 24.4352 24.0385 21.7952V12.2529C24.0385 9.61288 23.7565 8.26949 23.0957 7.0329C22.5531 6.00162 21.7105 5.15908 20.6792 4.61647C19.4443 3.95729 18.0993 3.67526 15.4609 3.67526H12.5905H12.5922ZM12.5922 0.337646H15.4592C18.8202 0.337646 20.6225 0.801575 22.2546 1.67436C23.8672 2.52794 25.1859 3.84664 26.0394 5.45922C26.9122 7.09131 27.3762 8.89362 27.3762 12.2546V21.7968C27.3762 25.1578 26.9122 26.9601 26.0394 28.5922C25.1859 30.2048 23.8672 31.5235 22.2546 32.3771C20.6225 33.2499 18.8202 33.7138 15.4592 33.7138H12.5905C9.22954 33.7138 7.42723 33.2499 5.79513 32.3771C4.18255 31.5235 2.86386 30.2048 2.01028 28.5922C1.13916 26.9601 0.675232 25.1578 0.675232 21.7968V12.2529C0.675232 8.89196 1.13916 7.08964 2.01195 5.45755C2.86624 3.84534 4.18551 2.52723 5.79847 1.67436C7.4289 0.801575 9.23121 0.337646 12.5922 0.337646ZM12.3569 7.01288H15.6945V15.3569H12.3569V7.01288Z" fill="white"/>
</svg>
