<svg width="57" height="51" viewBox="0 0 57 51" fill="none" xmlns="http://www.w3.org/2000/svg">
<path d="M0.478378 0.38623V50.6137H56.9939V0.38623H0.478378Z" fill="white"/>
<path d="M48.0235 26.597C47.7755 27.4543 47.6819 28.1078 47.6606 28.9586C47.624 30.4143 45.4076 30.9925 44.1792 29.3396C43.1682 27.9791 42.0082 23.1251 41.8725 22.5489C41.3183 20.1948 41.1041 19.3372 41.0343 18.4668C40.9449 17.3514 41.4253 16.7179 42.4847 16.4615C43.5824 16.1956 44.4749 16.7072 44.5638 17.8321C44.7311 19.9471 44.8683 21.5968 45.0865 22.5593C45.1595 22.8813 45.3626 22.9976 45.5803 22.9976C45.8643 22.9976 46.03 22.8125 46.1305 22.6101C46.5457 21.7739 47.6092 18.2056 51.1073 14.0586V5.54065H34.2251L28.4443 10.9466L22.6633 5.54065H5.78086V33.2618H22.8491L22.8494 23.7058L28.4443 28.9378L34.0391 23.7058L34.0395 33.2618H36.3325C36.3554 32.5108 36.3717 31.5107 36.3571 31.0864C36.3361 30.6435 36.3129 29.5792 36.3129 29.0039C36.3129 25.804 36.6125 25.0199 36.6125 20.4081C36.6125 19.0292 36.2823 18.6941 35.8065 18.6941C35.2752 18.6941 33.9311 19.639 32.9407 20.2983C31.3526 21.354 30.4972 22.1951 29.4693 22.1951C28.8622 22.1951 28.516 21.9449 28.1308 21.484C28.0587 21.3989 27.8543 21.0176 27.8543 20.7139C27.8543 20.3731 28.0001 19.9015 28.5597 19.5858C29.1651 19.2451 29.8335 19.3103 31.2688 18.5001C32.9706 17.5396 35.0056 16.4253 35.3331 16.2314C35.9182 15.9438 35.7783 15.5011 35.779 15.0912C35.779 14.1985 36.6347 13.8898 37.3689 13.8898C38.0731 13.8898 38.5102 14.1332 38.6157 14.1779C38.8792 14.0413 39.564 13.6826 40.8462 12.9431C42.4232 12.0335 42.396 11.314 43.3789 11.117C44.4691 10.8985 45.1595 11.8929 45.1595 12.5876C45.1595 13.6298 43.7359 14.2353 43.0184 14.6142C41.0108 15.6744 40.3011 16.1213 39.5858 16.5539C39.6239 16.9718 39.6233 17.9423 39.6242 18.7808C39.6242 20.1769 40.072 22.7828 40.072 24.2272C40.072 25.941 39.9956 28.0663 39.9956 28.595C39.9956 29.4474 40.0989 30.4158 40.1837 31.0864C40.2388 31.635 40.3141 32.5339 40.3554 33.2618H51.1073V19.9021C51.0885 19.9366 51.0698 19.9709 51.0511 20.0057C50.1205 21.7391 48.9312 23.6634 48.0235 26.597Z" fill="black"/>
<path d="M18.8297 43.6448C19.286 43.6448 19.6406 43.55 19.8942 43.3604C20.1478 43.1707 20.2744 42.8943 20.2744 42.5307C20.2744 42.1514 20.1456 41.8808 19.8877 41.7188C19.6299 41.5569 19.2689 41.4759 18.804 41.4759H16.5989V43.6448H18.8297ZM18.766 38.3231H16.5989V39.9586H18.766C19.1209 39.9586 19.3934 39.8857 19.5837 39.7395C19.7736 39.5933 19.8689 39.3897 19.8689 39.1289C19.8689 38.8842 19.7757 38.6886 19.5901 38.5422C19.4041 38.3963 19.1295 38.3231 18.766 38.3231ZM20.4266 40.575C20.9419 40.6698 21.3684 40.8991 21.7067 41.2625C22.0445 41.626 22.2134 42.0844 22.2134 42.6374C22.2134 43.3722 21.9556 43.9768 21.4407 44.4509C20.9249 44.925 20.1601 45.162 19.1466 45.162H14.7736V36.8058H19.0196C19.9236 36.8058 20.6122 36.9977 21.0856 37.3808C21.5587 37.7641 21.7952 38.2637 21.7952 38.88C21.7952 39.2754 21.6685 39.6347 21.4149 39.9586C21.1618 40.2828 20.832 40.4882 20.4266 40.575Z" fill="black"/>
<path d="M24.419 43.3367C24.419 43.5423 24.5054 43.7002 24.6786 43.8108C24.8518 43.9216 25.0862 43.9768 25.3821 43.9768C25.847 43.9768 26.225 43.8602 26.5167 43.627C26.808 43.3941 26.9538 43.0483 26.9538 42.59V42.519C26.9115 42.519 26.867 42.517 26.8209 42.5129C26.7742 42.5092 26.7297 42.507 26.6878 42.507C25.7833 42.507 25.1794 42.5882 24.8753 42.7499C24.5712 42.9121 24.419 43.1077 24.419 43.3367ZM26.9538 44.4272C26.7678 44.7117 26.5018 44.9449 26.1553 45.1264C25.8089 45.3082 25.365 45.399 24.8245 45.399C24.1654 45.399 23.6308 45.241 23.2211 44.9251C22.8114 44.6091 22.6065 44.1626 22.6065 43.5856C22.6065 43.2697 22.6784 42.9733 22.8221 42.6967C22.9657 42.4202 23.198 42.181 23.5192 41.9796C23.8399 41.7781 24.2625 41.6181 24.7863 41.4996C25.3103 41.3812 25.9441 41.3218 26.6878 41.3218H26.941C26.9158 41.0058 26.8058 40.7688 26.6117 40.6106C26.4171 40.4526 26.1382 40.3737 25.7752 40.3737C25.4711 40.3737 25.2154 40.4369 25.0083 40.5633C24.8013 40.6896 24.6469 40.8874 24.5456 41.1557L22.8725 40.7172C23.0586 40.2354 23.3776 39.8205 23.8296 39.4728C24.2817 39.1252 24.9343 38.9512 25.788 38.9512C26.7511 38.9512 27.4734 39.1764 27.955 39.627C28.4365 40.0773 28.6773 40.6936 28.6773 41.4759V45.162H26.9538V44.4272Z" fill="black"/>
<path d="M35.3187 43.4552C35.3187 44.0402 35.078 44.5101 34.5964 44.8657C34.1144 45.2212 33.413 45.399 32.4922 45.399C31.5881 45.399 30.8846 45.229 30.3821 44.8894C29.8791 44.5497 29.5391 44.0954 29.3616 43.5264L30.9966 43.1945C31.0809 43.4868 31.2481 43.7142 31.4975 43.876C31.7463 44.038 32.0782 44.119 32.4922 44.119C32.8553 44.119 33.1196 44.0638 33.2842 43.953C33.4489 43.8424 33.5315 43.6964 33.5315 43.5145C33.5315 43.2143 33.3266 43.0285 32.9169 42.9575C32.5067 42.8863 32.059 42.8016 31.5731 42.7026C31.0873 42.604 30.6395 42.43 30.2298 42.181C29.8201 41.9323 29.6152 41.4839 29.6152 40.8358C29.6152 40.3142 29.8432 39.8699 30.2995 39.5024C30.7558 39.135 31.4192 38.9512 32.2895 38.9512C32.7202 38.9512 33.0983 39.0006 33.4237 39.0994C33.7491 39.1984 34.0237 39.3326 34.2478 39.5024C34.4715 39.6723 34.6468 39.8679 34.7734 40.0891C34.9004 40.3105 34.9847 40.5436 35.027 40.7884L33.4934 41.073C33.4344 40.8044 33.3035 40.5928 33.1008 40.4389C32.8976 40.2847 32.623 40.2077 32.2767 40.2077C31.9303 40.2077 31.6831 40.265 31.5355 40.3795C31.3875 40.4941 31.3135 40.6304 31.3135 40.7884C31.3135 41.0807 31.5227 41.2626 31.941 41.3337C32.3592 41.4047 32.8172 41.4877 33.3159 41.5825C33.8146 41.6773 34.2731 41.8513 34.6913 42.104C35.1096 42.357 35.3187 42.8073 35.3187 43.4552Z" fill="black"/>
<path d="M39.1083 40.3737C38.7277 40.3737 38.4066 40.4704 38.1448 40.664C37.8831 40.8576 37.7142 41.1637 37.638 41.5825H40.553C40.4683 41.1795 40.3037 40.8774 40.0586 40.6758C39.8136 40.4742 39.4967 40.3737 39.1083 40.3737ZM42.1119 43.55C41.9007 44.127 41.5393 44.5793 41.0282 44.9072C40.5171 45.235 39.8983 45.399 39.1717 45.399C38.1239 45.399 37.3147 45.1008 36.7446 44.5041C36.1741 43.9076 35.8888 43.1115 35.8888 42.1158C35.8888 41.1519 36.1869 40.3836 36.7822 39.8105C37.378 39.2378 38.1533 38.9512 39.1083 38.9512C40.0629 38.9512 40.8362 39.2378 41.4276 39.8105C42.0191 40.3836 42.3146 41.1519 42.3146 42.1158C42.3146 42.2186 42.3104 42.3234 42.3022 42.43C42.2937 42.5367 42.2809 42.6453 42.2641 42.756H37.638C37.7223 43.1669 37.8916 43.473 38.1448 43.6746C38.3984 43.876 38.7277 43.9768 39.1336 43.9768C39.5219 43.9768 39.8114 43.8958 40.0018 43.7338C40.1917 43.5718 40.329 43.4 40.4136 43.2183L42.1119 43.55Z" fill="black"/>
</svg>
