<svg width="1160" height="903" viewBox="0 0 1160 903" fill="none" xmlns="http://www.w3.org/2000/svg">
<g opacity="0.5" clip-path="url(#clip0_108_77)">
<path opacity="0.2" d="M1051.25 740.569C1040.35 728.956 1015.12 719.007 981.332 712.422V562.743H979.787V561.196H951.887V562.743H908.051C911.979 540.096 925.081 461.132 922.441 429.417C922.441 429.417 956.501 336.411 928.633 258.896C928.633 258.896 956.533 265.095 959.602 234.09C962.102 209.057 990.807 153.75 957.842 121.928C950.105 113.806 938.602 107.091 921.991 102.589L913.932 80.0282C919.19 71.702 922.441 60.4643 922.441 48.0771C922.441 31.3924 916.582 16.7706 907.805 8.56256C902.75 3.19082 896.58 -0.0322266 889.916 -0.0322266C884.841 0.0456851 879.935 1.8064 875.966 4.97424C876.546 5.41472 877.104 5.88743 877.662 6.38163C867.478 13.9988 860.492 29.7809 860.492 48.0233C860.492 61.8287 864.517 74.1945 870.88 82.714L866.684 110.035C866.684 110.035 779.979 88.3651 817.151 234.09C817.151 234.09 826.444 258.896 841.928 258.896C841.928 258.896 832.635 370.51 848.12 410.82C848.12 410.82 841.928 510.036 854.322 531.738V562.743H776.889V716.268C737.249 725.357 711.849 739.312 711.849 754.944C711.849 782.351 789.497 804.558 885.281 804.558C981.064 804.558 1058.7 782.394 1058.7 754.976C1058.7 749.97 1056.08 745.135 1051.25 740.569Z" fill="#F2F2F2"/>
<path opacity="0.2" d="M440.95 756.835C430.831 746.027 407.331 736.777 375.836 730.642V591.353H374.398V589.914H348.461V591.353H307.684C311.344 570.285 323.534 496.811 321.076 467.287C321.076 467.287 352.775 380.727 326.839 308.596C326.839 308.596 352.775 314.365 355.662 285.519C357.99 262.227 384.699 210.755 354.02 181.146C346.82 173.625 336.121 167.34 320.669 163.172L313.157 142.136C318.061 134.379 321.076 123.937 321.076 112.398C321.076 96.8739 315.636 83.2726 307.459 75.634C302.759 70.6276 297.018 67.6838 290.816 67.6838C286.098 67.7587 281.539 69.3986 277.853 72.3465C278.389 72.7548 278.926 73.1952 279.43 73.6465C269.955 80.7372 263.441 95.4235 263.441 112.398C263.441 125.29 267.197 136.754 273.099 144.629L269.193 170.048C269.193 170.048 188.508 149.85 223.05 285.465C223.05 285.465 231.7 308.542 246.111 308.542C246.111 308.542 237.462 412.41 251.873 449.926C251.873 449.926 246.111 542.255 257.636 562.453V591.299H185.632V734.188C148.75 742.643 125.11 755.675 125.11 770.211C125.11 795.705 197.372 816.407 286.502 816.407C375.632 816.407 447.882 795.737 447.882 770.211C447.882 765.58 445.446 761.079 440.95 756.835Z" fill="#F2F2F2"/>
<path opacity="0.2" d="M678.391 749.562C670.879 741.504 653.345 734.617 629.887 730.052V626.312H628.814V625.238H609.499V626.312H579.131C581.856 610.616 590.935 555.878 589.11 533.919C589.11 533.919 612.718 469.458 593.403 415.74C593.403 415.74 612.718 420.038 614.864 398.551C616.603 381.2 636.498 342.867 613.641 320.811C608.276 315.181 600.313 310.529 588.799 307.425L583.219 291.728C587.206 285.037 589.249 277.365 589.121 269.575C589.121 258.015 585.065 247.884 578.97 242.19C575.472 238.462 571.201 236.271 566.587 236.271C563.071 236.329 559.674 237.553 556.929 239.751C557.337 240.052 557.723 240.375 558.109 240.718C551.048 245.993 546.198 256.93 546.198 269.575C546.198 279.148 548.999 287.721 553.409 293.619L550.49 312.56C550.49 312.56 490.398 297.519 516.152 398.508C516.152 398.508 522.59 415.697 533.321 415.697C533.321 415.697 526.883 493.05 537.613 520.983C537.613 520.983 533.321 589.742 541.906 604.783V626.27H488.252V732.63C460.781 738.926 443.182 748.605 443.182 759.489C443.182 778.483 496.997 793.868 563.367 793.868C629.737 793.868 683.552 778.472 683.552 759.489C683.552 756.072 681.739 752.72 678.391 749.562Z" fill="#F2F2F2"/>
<path d="M1116.18 767.159C1111.73 762.411 1101.42 758.35 1087.6 755.653V694.523H1086.97V693.889H1075.58V694.523H1057.68C1059.29 685.273 1064.65 653.01 1063.56 640.064C1063.56 640.064 1077.51 602.064 1066.09 570.403C1066.09 570.403 1077.48 572.939 1078.75 560.272C1079.82 550.055 1091.49 527.462 1078.03 514.462C1074.86 511.142 1070.16 508.403 1063.38 506.576L1060.09 497.337C1062.44 493.396 1063.64 488.874 1063.56 484.284C1063.56 477.472 1061.17 471.499 1057.59 468.168C1056.68 467.11 1055.56 466.253 1054.3 465.652C1053.04 465.051 1051.67 464.719 1050.28 464.677C1048.21 464.714 1046.21 465.435 1044.59 466.729C1044.83 466.906 1045.06 467.096 1045.28 467.298C1041.12 470.403 1038.27 476.849 1038.27 484.305C1038.17 489.364 1039.67 494.325 1042.56 498.476L1040.85 509.638C1040.85 509.638 1005.43 500.775 1020.61 560.294C1020.61 560.294 1024.41 570.425 1030.73 570.425C1030.73 570.425 1026.94 616.02 1033.26 632.479C1033.26 632.479 1030.73 673.014 1035.79 681.899V694.566H1004.11V757.275C987.921 760.982 977.544 766.687 977.544 773.079C977.544 784.274 1009.26 793.352 1048.37 793.352C1087.47 793.352 1119.19 784.274 1119.19 773.079C1119.22 770.995 1118.15 769.018 1116.18 767.159Z" fill="#F2F2F2"/>
<path d="M193.326 767.159C188.884 762.411 178.571 758.35 164.75 755.653V694.523H164.117V693.889H152.732V694.523H134.833C136.442 685.273 141.797 653.01 140.713 640.064C140.713 640.064 154.663 602.064 143.246 570.403C143.246 570.403 154.631 572.939 155.897 560.272C156.917 550.055 168.645 527.462 155.178 514.462C151.959 511.142 147.312 508.403 140.531 506.576L137.236 497.337C139.589 493.396 140.793 488.874 140.713 484.284C140.713 477.472 138.32 471.499 134.736 468.168C133.827 467.11 132.708 466.253 131.45 465.652C130.191 465.051 128.822 464.719 127.428 464.677C125.358 464.714 123.359 465.435 121.741 466.729C121.98 466.906 122.209 467.096 122.428 467.298C118.275 470.403 115.421 476.849 115.421 484.305C115.305 489.35 116.785 494.302 119.648 498.454L117.932 509.617C117.932 509.617 82.5199 500.753 97.6932 560.272C97.6932 560.272 101.492 570.403 107.812 570.403C107.812 570.403 104.024 615.999 110.345 632.458C110.345 632.458 107.812 672.993 112.877 681.878V694.544H81.2644V757.254C65.0716 760.96 54.6949 766.665 54.6949 773.058C54.6949 784.252 86.4152 793.33 125.518 793.33C164.621 793.33 196.342 784.252 196.342 773.058C196.374 770.995 195.301 769.018 193.326 767.159Z" fill="#F2F2F2"/>
<path d="M0 771.79H1160C1160 771.79 1117.08 888.593 1007.12 846.994C897.16 805.395 831.444 855.052 771.094 877.871C710.744 900.69 590.055 918.159 559.214 883.243C528.374 848.326 500.195 832.222 391.589 845.64C282.982 859.059 211.88 887.261 198.434 849.669C184.988 812.078 182.338 799.991 105.902 806.695C29.4668 813.399 0 771.79 0 771.79Z" fill="#2F2E41"/>
<path d="M681.127 397.455C668.1 419.629 666.104 446.316 661.715 471.649C654.826 510.906 641.326 548.766 634.523 588.044C632.152 601.785 630.617 615.719 626.851 629.138C621.678 647.574 612.45 664.591 603.79 681.62C589.046 710.713 575.665 740.967 570.16 773.122C568.443 783.146 569.784 796.758 579.699 798.906C582.532 799.54 585.719 799.035 588.134 800.647C589.55 801.581 590.452 803.096 591.589 804.353C595.946 809.166 603.447 809.725 609.671 807.974C615.895 806.223 621.324 802.376 627.097 799.379C650.018 787.561 677.189 788.969 702.9 790.645C707.632 790.945 712.944 791.536 715.938 795.232C717.451 797.112 718.084 799.529 719.211 801.678C723.203 809.467 733.74 813.088 741.66 809.392C744.621 808.006 747.164 805.782 750.244 804.643C759.655 801.13 769.56 808.747 779.636 808.801C794.122 808.866 805.025 793.502 819.501 792.976C829.373 792.621 838.398 799.358 848.27 799.422C855.674 799.422 862.499 795.683 868.938 792.041L912.934 767.159C901.172 750.69 886.765 736.285 870.3 724.529C858.185 715.935 854.912 698.745 847.519 685.853C842.636 677.322 837.7 668.663 835.318 659.134C833.601 652.258 833.258 645.103 831.562 638.216C829.212 628.719 824.373 620.07 820.531 611.078C805.293 575.453 805.808 534.799 791.847 498.648C787.92 488.463 782.866 478.718 779.378 468.373C774.785 454.75 772.993 440.311 768.358 426.709C763.722 413.108 755.481 399.754 742.336 393.899C736.631 391.55 730.557 390.23 724.394 389.999C709.038 389.01 695.378 391.653 681.127 397.455Z" fill="#3F3D56"/>
<path d="M738.387 216.782H677.178V298.497H738.387V216.782Z" fill="#FBC661"/>
<path d="M736.734 280.168C733.622 279.685 730.446 280.168 727.302 280.168C719.565 280.072 717.365 289.429 709.65 290.192C700.239 291.116 687.19 285.153 679.324 290.418C677.886 291.421 676.364 292.298 674.775 293.039C668.336 295.875 660.47 294.823 654.579 298.68C648.688 302.536 646.531 310.154 646.531 317.201C646.384 319.723 646.749 322.249 647.604 324.625C648.43 326.634 649.804 328.374 650.63 330.383C651.21 331.802 651.51 333.316 651.993 334.778C653.308 338.123 655.117 341.252 657.358 344.06L670.987 363.044C674.56 368.029 673.133 374.195 673.712 380.308C674.141 385.003 675.236 389.645 675.225 394.35C675.215 399.056 673.927 404.019 670.418 407.242C678.487 406.748 686.532 406.007 694.551 405.018C701.162 404.202 707.75 403.224 714.393 402.752C728.343 401.763 742.357 403.042 756.243 404.32C753.946 401.462 752.906 397.477 752.337 393.856C750.448 381.845 749.257 369.264 753.206 357.769C754.473 354.331 755.961 350.98 757.659 347.734L761.898 339.193C767.896 327.117 773.498 314.741 774.775 301.312C775.254 297.864 774.844 294.35 773.584 291.105C771.727 286.948 767.714 284.025 763.39 282.607C758.999 281.354 754.41 280.953 749.869 281.425C745.641 281.63 740.962 280.813 736.734 280.168Z" fill="#3F3D56"/>
<path d="M692.674 274.517C693.65 277.074 694.82 279.814 694.058 282.457C692.641 287.7 685.409 288.763 682.254 293.2C681.979 293.501 681.789 293.87 681.705 294.268C681.62 294.667 681.643 295.081 681.771 295.467C681.922 295.726 682.118 295.955 682.35 296.144C688.242 301.279 696.762 301.72 704.574 301.634C715.959 301.527 728.117 300.56 737.142 293.652C739.664 291.718 742.035 288.495 740.747 285.583C739.75 283.359 737.121 282.521 734.942 281.426C730.06 278.965 726.561 274.281 724.63 269.156C722.698 264.032 722.205 258.499 722.119 253.041C722.206 252.108 722.003 251.17 721.539 250.355C720.788 249.281 719.393 249.12 718.073 249.034C710.719 248.542 703.334 248.838 696.043 249.915C693.983 250.216 690.055 250.495 688.607 252.182C687.158 253.868 687.995 255.867 688.274 257.704C689.145 263.448 690.62 269.084 692.674 274.517Z" fill="#FBB3B2"/>
<path opacity="0.05" d="M692.674 274.517C693.65 277.074 694.82 279.814 694.058 282.457C692.641 287.7 685.409 288.763 682.254 293.2C681.979 293.501 681.789 293.87 681.705 294.268C681.62 294.667 681.643 295.081 681.771 295.467C681.922 295.726 682.118 295.955 682.35 296.144C688.242 301.279 696.762 301.72 704.574 301.634C715.959 301.527 728.117 300.56 737.142 293.652C739.664 291.718 742.035 288.495 740.747 285.583C739.75 283.359 737.121 282.521 734.942 281.426C730.06 278.965 726.561 274.281 724.63 269.156C722.698 264.032 722.205 258.499 722.119 253.041C722.206 252.108 722.003 251.17 721.539 250.355C720.788 249.281 719.393 249.12 718.073 249.034C710.719 248.542 703.334 248.838 696.043 249.915C693.983 250.216 690.055 250.495 688.607 252.182C687.158 253.868 687.995 255.867 688.274 257.704C689.145 263.448 690.62 269.084 692.674 274.517Z" fill="black"/>
<path d="M706.527 264.096C721.705 264.096 734.009 251.778 734.009 236.582C734.009 221.387 721.705 209.068 706.527 209.068C691.349 209.068 679.045 221.387 679.045 236.582C679.045 251.778 691.349 264.096 706.527 264.096Z" fill="#FBB3B2"/>
<path opacity="0.1" d="M732.732 804.686C730.557 805.642 728.477 806.801 726.518 808.146C728.942 809.677 731.701 810.595 734.558 810.819C737.414 811.044 740.283 810.569 742.915 809.435C744.997 808.457 746.864 807.071 748.86 805.943C743.366 804.224 737.968 802.731 732.732 804.686Z" fill="black"/>
<path opacity="0.1" d="M609.606 799.433C604.96 801.818 600.528 804.729 595.731 806.717C600.088 809.317 605.915 809.435 610.926 807.985C617.15 806.169 622.58 802.387 628.342 799.39C640.919 792.944 654.783 790.419 668.969 789.721C648.409 789.033 627.688 790.129 609.606 799.433Z" fill="black"/>
<path opacity="0.1" d="M871.534 724.519C859.419 715.924 856.157 698.734 848.753 685.842C843.87 677.312 838.934 668.653 836.552 659.123C834.835 652.247 834.492 645.092 832.796 638.206C830.457 628.708 825.617 620.06 821.776 611.068C806.538 575.442 807.042 534.789 793.092 498.637C789.154 488.452 784.1 478.708 780.612 468.362C776.03 454.739 774.174 440.3 769.592 426.699C765.01 413.098 756.715 399.743 743.57 393.888C737.957 391.374 731.766 390.397 725.628 389.988C720.45 389.645 715.252 389.735 710.089 390.257C715.177 390.683 720.165 391.916 724.866 393.91C737.979 399.765 746.252 413.119 750.888 426.72C755.524 440.322 757.327 454.761 761.909 468.383C765.396 478.729 770.493 488.474 774.378 498.659C788.328 534.81 787.823 575.464 803.061 611.089C806.914 620.081 811.753 628.73 814.092 638.227C815.788 645.114 816.131 652.269 817.848 659.145C820.23 668.674 825.167 677.333 830.049 685.864C837.443 698.756 840.716 715.881 852.831 724.54C869.301 736.287 883.715 750.685 895.486 767.149L851.489 792.031C847.81 794.237 843.951 796.127 839.954 797.682C843.067 798.744 846.323 799.327 849.611 799.412C857.005 799.412 863.83 795.673 870.268 792.031L914.264 767.149C902.476 750.669 888.036 736.263 871.534 724.519Z" fill="black"/>
<path opacity="0.1" d="M801.988 793.019C790.646 793.427 781.492 802.957 771.083 806.986C774.239 808.053 777.531 808.664 780.859 808.801C792.513 808.801 801.849 798.928 812.59 794.77C809.182 793.583 805.596 792.991 801.988 793.019Z" fill="black"/>
<path d="M704.864 394.028V373.733H695.023C695.549 370.693 697.309 360.068 696.955 355.803C696.955 355.803 701.537 343.297 697.792 332.876C698.292 332.997 698.813 333.003 699.315 332.891C699.818 332.78 700.288 332.555 700.69 332.233C701.092 331.912 701.415 331.502 701.634 331.036C701.854 330.571 701.964 330.061 701.956 329.545C702.363 325.377 708.201 314.956 696.955 312.034L695.807 308.811C696.584 307.514 696.981 306.025 696.955 304.513C696.955 301.065 695.088 298.26 692.791 298.26C690.495 298.26 688.628 301.065 688.628 304.513C688.588 306.179 689.076 307.816 690.023 309.187L689.454 312.904C689.454 312.904 677.801 309.982 682.801 329.578C682.801 329.578 684.046 332.908 686.128 332.908C686.128 332.908 684.883 347.949 686.965 353.321C686.965 353.321 686.128 366.653 687.791 369.576V373.744H677.382V394.382C672.017 395.607 668.636 397.487 668.636 399.593C668.636 403.278 679.078 406.265 691.954 406.265C704.831 406.265 715.273 403.278 715.273 399.593C715.273 397.262 711.141 395.22 704.864 394.028Z" fill="#6C63FF"/>
<path opacity="0.1" d="M692.995 304.309C693.023 305.819 692.629 307.308 691.858 308.606L692.995 311.829C704.241 314.741 698.414 325.162 697.996 329.33C698.003 329.846 697.893 330.356 697.674 330.822C697.455 331.288 697.132 331.698 696.73 332.02C696.329 332.343 695.859 332.569 695.357 332.682C694.854 332.795 694.333 332.791 693.832 332.672C697.577 343.093 692.995 355.598 692.995 355.598C693.35 359.896 691.59 370.478 691.064 373.529H694.82C695.345 370.478 697.116 359.863 696.762 355.598C696.762 355.598 701.333 343.093 697.588 332.672C698.089 332.791 698.61 332.795 699.112 332.682C699.615 332.569 700.084 332.343 700.486 332.02C700.888 331.698 701.21 331.288 701.43 330.822C701.649 330.356 701.759 329.846 701.752 329.33C702.17 325.162 707.997 314.741 696.762 311.829L695.614 308.606C696.389 307.309 696.787 305.82 696.762 304.309C696.762 300.86 694.895 298.056 692.598 298.056C691.915 298.067 691.254 298.305 690.72 298.733C691.487 299.437 692.088 300.302 692.482 301.266C692.875 302.23 693.05 303.269 692.995 304.309Z" fill="black"/>
<path opacity="0.1" d="M704.66 393.813V373.529H700.915V393.813C707.182 395.016 711.324 397.036 711.324 399.367C711.324 402.88 701.88 405.749 689.862 406.018H691.74C704.617 406.018 715.058 403.031 715.058 399.346C715.069 397.058 710.916 395.016 704.66 393.813Z" fill="black"/>
<path d="M715.788 197.949C707.203 195.8 697.974 194.156 689.798 197.454C686.044 199.119 682.592 201.396 679.582 204.191C676.803 206.608 674.098 209.283 672.618 212.667C670.847 216.75 671.051 221.369 670.944 225.817C670.836 230.265 670.246 235.035 667.295 238.355C666.147 239.644 664.655 240.697 663.915 242.265C662.842 244.414 663.55 247.068 664.602 249.249C665.653 251.43 667.059 253.492 667.542 255.877C668.197 259.176 666.92 262.592 665.106 265.428C663.293 268.265 660.932 270.714 659.054 273.518C657.176 276.322 655.717 280.34 657.423 283.424C658.496 285.411 660.706 286.647 661.822 288.602C662.359 289.537 662.627 290.622 663.196 291.535C664.773 294.038 668.089 294.651 671.019 294.951C675.708 295.446 680.934 295.596 684.572 292.588C687.072 290.525 688.338 287.313 688.95 284.122C689.562 280.931 689.583 277.676 690.152 274.453C690.56 272.154 691.225 269.855 691.032 267.534C690.763 264.44 688.971 261.722 687.566 258.939C685.448 255.076 684.459 250.694 684.711 246.294C685.13 241.932 687.426 237.624 691.268 235.551C693.972 234.057 697.309 233.681 699.606 231.619C703.243 228.396 702.696 222.68 703.351 217.856C703.438 216.781 703.788 215.745 704.37 214.837C705.508 213.29 707.589 212.871 709.521 212.689C714.017 212.302 718.792 212.785 722.559 215.289C726.049 217.77 728.466 221.488 729.319 225.688C730.146 229.864 730.069 234.168 729.094 238.312C729.244 236.496 732.034 236.002 733.322 237.238C734.609 238.473 734.674 240.6 734.309 242.384C732.807 249.904 726.003 255.276 723.718 262.581C722.811 265.592 722.697 268.786 723.385 271.854C724.073 274.922 725.54 277.76 727.645 280.093C728.211 280.786 728.952 281.313 729.791 281.619C730.65 281.786 731.528 281.829 732.399 281.748C735.822 281.748 738.762 284.101 741.37 286.335C743.977 288.57 746.735 290.966 750.212 291.234C753.689 291.503 757.434 288.366 756.404 285.089C756.03 284.11 755.431 283.234 754.655 282.532C752.508 280.319 749.697 278.578 748.216 275.871C745.63 271.327 747.207 265.643 748.839 260.669C750.47 255.695 752.058 250.001 749.407 245.478C748.162 243.329 746.081 241.718 745.115 239.44C744.583 238.121 744.303 236.715 744.289 235.293C744.063 230.093 745.362 224.797 744.289 219.726C743.649 217.28 742.53 214.987 740.995 212.98C739.46 210.973 737.541 209.292 735.35 208.037C733.125 206.682 730.708 205.671 728.182 205.039C727.205 204.792 725.724 204.846 725.038 204.115C724.351 203.385 724.115 202.085 723.246 201.268C721.142 199.463 718.352 198.582 715.788 197.949Z" fill="#FBC661"/>
<path opacity="0.05" d="M733.322 231.457C732.855 231.052 732.272 230.805 731.656 230.755C731.04 230.705 730.424 230.853 729.899 231.178C729.872 233.46 729.624 235.734 729.158 237.968C729.63 236.453 732.12 236.109 733.322 237.291C733.562 237.53 733.768 237.801 733.933 238.097C734.085 237.606 734.21 237.108 734.309 236.604C734.674 234.82 734.62 232.736 733.322 231.457Z" fill="black"/>
<path opacity="0.05" d="M744.181 229.513C744.192 229.94 744.224 230.367 744.278 230.791C744.592 227.855 744.66 224.897 744.482 221.949C744.242 224.463 744.142 226.988 744.181 229.513Z" fill="black"/>
<path opacity="0.05" d="M729.158 237.968C729.126 238.084 729.105 238.203 729.094 238.323L729.158 237.968Z" fill="black"/>
<path opacity="0.05" d="M747.046 267.201C747.461 265.013 748.035 262.859 748.763 260.755C750.062 256.823 751.307 252.429 750.459 248.518C750.062 250.708 749.495 252.863 748.763 254.964C747.465 258.853 746.199 263.269 747.046 267.201Z" fill="black"/>
<path opacity="0.05" d="M729.319 225.699C729.509 226.539 729.652 227.389 729.748 228.245C730.057 225.447 729.912 222.617 729.319 219.865C728.47 215.661 726.052 211.938 722.559 209.455C718.792 206.962 713.974 206.468 709.521 206.855C707.611 207.027 705.508 207.446 704.37 209.004C703.788 209.907 703.438 210.94 703.351 212.012C702.696 216.846 703.243 222.53 699.606 225.774C697.309 227.848 693.972 228.224 691.268 229.717C687.426 231.866 685.13 236.163 684.711 240.461C684.575 242.012 684.633 243.575 684.883 245.113C685.176 243.133 685.906 241.244 687.019 239.583C688.133 237.921 689.603 236.529 691.321 235.508C694.026 234.015 697.363 233.639 699.659 231.576C703.297 228.353 702.75 222.637 703.404 217.813C703.491 216.739 703.841 215.702 704.424 214.794C705.561 213.247 707.643 212.828 709.575 212.646C714.071 212.259 718.846 212.742 722.612 215.246C726.094 217.75 728.493 221.488 729.319 225.699Z" fill="black"/>
<path opacity="0.05" d="M755.32 283.338C754.676 284.053 753.883 284.616 752.996 284.987C752.109 285.359 751.151 285.529 750.19 285.486C746.767 285.218 743.945 282.822 741.348 280.587C738.751 278.353 735.801 276.043 732.377 276C731.506 276.076 730.629 276.033 729.77 275.871C728.933 275.561 728.192 275.034 727.624 274.345C725.243 271.735 723.684 268.48 723.138 264.988C722.699 267.695 722.874 270.466 723.65 273.096C724.427 275.726 725.785 278.147 727.624 280.179C728.189 280.872 728.93 281.399 729.77 281.705C730.628 281.872 731.506 281.915 732.377 281.834C735.801 281.834 738.741 284.186 741.348 286.421C743.956 288.656 746.714 291.051 750.19 291.32C753.667 291.589 757.412 288.452 756.382 285.175C756.155 284.497 755.794 283.872 755.32 283.338Z" fill="black"/>
<path opacity="0.05" d="M667.284 254.889C667.75 253.317 667.838 251.657 667.542 250.044C667.059 247.669 665.643 245.607 664.602 243.426C664.387 242.982 664.194 242.53 664.022 242.072C664.022 242.136 663.947 242.201 663.915 242.276C662.842 244.425 663.55 247.078 664.602 249.259C665.625 251.071 666.522 252.952 667.284 254.889Z" fill="black"/>
<path opacity="0.05" d="M690.72 265.783C690.538 266.739 690.323 267.685 690.152 268.641C689.583 271.864 689.551 275.087 688.95 278.31C688.349 281.533 687.072 284.756 684.572 286.776C680.934 289.773 675.708 289.633 671.019 289.139C668.089 288.838 664.773 288.215 663.196 285.723C662.627 284.799 662.359 283.725 661.822 282.779C660.749 280.802 658.528 279.556 657.423 277.601C657.348 277.472 657.283 277.321 657.219 277.182C656.809 278.181 656.616 279.256 656.651 280.335C656.686 281.415 656.949 282.475 657.423 283.445C658.496 285.433 660.706 286.668 661.822 288.624C662.359 289.558 662.627 290.643 663.196 291.557C664.773 294.06 668.089 294.672 671.019 294.973C675.708 295.467 680.934 295.618 684.572 292.609C687.072 290.547 688.338 287.334 688.95 284.144C689.562 280.953 689.583 277.697 690.152 274.474C690.56 272.175 691.225 269.876 691.032 267.556C690.978 266.957 690.874 266.364 690.72 265.783Z" fill="black"/>
<path d="M650.737 306.608C650.737 306.608 645.372 309.53 641.992 336.625C638.612 363.72 636.991 392.491 636.991 392.491C636.991 392.491 636.991 416.675 659.891 417.502C659.891 417.502 669.055 419.178 671.974 421.262C674.893 423.347 720.692 409.165 699.037 406.222C677.382 403.278 669.473 404.546 669.473 404.546C669.473 404.546 657.809 397.025 657.809 389.956C657.809 382.887 669.473 340.837 669.473 340.837L650.737 306.608Z" fill="#FBB3B2"/>
<path d="M650.652 327.859C651.231 329.277 651.532 330.792 652.014 332.253C653.327 335.599 655.136 338.728 657.38 341.535C660.105 345.338 664.484 354.298 667.199 358.101C668.824 352.52 671.207 347.188 674.281 342.255L650.759 304.115C650.759 304.115 648.913 305.104 646.713 311.314C646.595 312.442 646.531 313.57 646.52 314.676C646.373 317.198 646.738 319.724 647.593 322.1C648.452 324.109 649.825 325.85 650.652 327.859Z" fill="#3F3D56"/>
<path d="M731.304 250.592C731.304 250.335 731.224 250.085 731.076 249.875C730.928 249.666 730.719 249.507 730.478 249.421V248.013C730.72 247.928 730.93 247.77 731.078 247.56C731.226 247.35 731.305 247.099 731.304 246.842C731.308 246.61 731.247 246.382 731.129 246.183C731.011 245.984 730.84 245.821 730.635 245.713C730.431 245.605 730.2 245.555 729.969 245.57C729.738 245.585 729.516 245.663 729.327 245.796C729.138 245.929 728.989 246.112 728.897 246.325C728.805 246.538 728.773 246.772 728.806 247.001C728.839 247.23 728.934 247.446 729.081 247.625C729.228 247.804 729.422 247.938 729.641 248.013V249.421C729.397 249.506 729.186 249.665 729.037 249.876C728.887 250.086 728.807 250.339 728.807 250.597C728.807 250.855 728.887 251.107 729.037 251.318C729.186 251.529 729.397 251.688 729.641 251.773V253.17C729.397 253.255 729.186 253.414 729.037 253.625C728.887 253.836 728.807 254.088 728.807 254.346C728.807 254.605 728.887 254.857 729.037 255.068C729.186 255.279 729.397 255.438 729.641 255.523V256.93C729.365 257.029 729.132 257.222 728.985 257.476C728.837 257.729 728.783 258.027 728.833 258.317C728.883 258.606 729.034 258.868 729.258 259.057C729.482 259.246 729.766 259.35 730.06 259.35C730.353 259.35 730.637 259.246 730.861 259.057C731.086 258.868 731.236 258.606 731.286 258.317C731.336 258.027 731.283 257.729 731.135 257.476C730.987 257.222 730.754 257.029 730.478 256.93V255.523C730.722 255.438 730.933 255.279 731.082 255.068C731.232 254.857 731.312 254.605 731.312 254.346C731.312 254.088 731.232 253.836 731.082 253.625C730.933 253.414 730.722 253.255 730.478 253.17V251.773C730.721 251.686 730.931 251.526 731.079 251.314C731.227 251.103 731.306 250.85 731.304 250.592Z" fill="#EEEFF3"/>
<path d="M771.491 289.934C777.892 300.658 782.53 312.341 785.227 324.539C789.39 344.135 792.309 348.303 792.309 348.303C792.309 348.303 810.637 394.995 790.227 397.917C769.817 400.839 734.019 397.917 734.019 397.917C734.019 397.917 661.565 410.422 686.965 393.748C712.364 377.074 732.377 379.148 732.377 379.148C732.377 379.148 762.778 378.321 766.941 375.398L774.85 374.571L756.114 321.208L771.491 289.934Z" fill="#FBB3B2"/>
<path d="M752.133 320.575L760.868 340.987C766.77 329.073 773.562 314.472 774.818 301.236C774.936 298.786 774.882 296.331 774.657 293.888C773.698 291.895 772.435 290.064 770.912 288.462L752.133 320.575Z" fill="#3F3D56"/>
<path d="M466.758 555.706C466.758 555.706 445.693 599.604 460.319 615.096C474.945 630.588 484.829 553.987 484.829 553.987L466.758 555.706Z" fill="#A0616A"/>
<path d="M364.869 760.993L341.261 790.688C341.261 790.688 293.541 809.628 337.387 812.175C337.387 812.175 358.849 810.456 363.141 807.437C367.434 804.418 370.02 798.401 378.615 801.85C387.21 805.299 397.104 798.401 397.104 798.401C397.104 798.401 398.392 764.828 389.797 760.96C381.201 757.093 364.869 760.993 364.869 760.993Z" fill="#36344A"/>
<path d="M453.001 771.747L447.41 796.285C447.41 796.285 434.941 825.55 453.001 821.242C471.061 816.934 480.085 812.207 481.802 803.601C483.519 794.996 488.241 785.52 488.241 785.52C488.241 785.52 483.079 772.177 478.358 771.747C473.636 771.317 453.001 771.747 453.001 771.747Z" fill="#36344A"/>
<path d="M337.784 475.195C337.784 475.195 322.31 581.555 333.063 639.57C343.815 697.585 356.67 757.072 356.67 757.072C356.67 757.072 341.647 791.451 393.155 768.696C393.155 768.696 389.721 683.468 379.398 650.335C369.075 617.202 384.699 572.466 388.992 571.177C388.992 571.177 406.161 657.694 422.955 686.132C439.748 714.57 449.084 780.793 449.084 780.793C449.084 780.793 485.204 785.52 484.775 776.055C484.346 766.59 477.896 686.53 456.875 658.124C456.875 658.124 438.815 610.778 450.436 561.712C462.058 512.647 437.967 495.855 437.967 495.855L399.722 450.668L361.467 442.073L337.784 475.195Z" fill="#3F3D56"/>
<path d="M451.23 291.954C450.827 293.355 450.177 294.672 449.31 295.843C448.412 296.807 447.351 297.604 446.176 298.196C442.399 300.33 438.401 302.048 434.254 303.321C433.181 305.469 434.92 307.887 436.572 309.627L441.422 314.762C444.255 317.749 447.088 320.736 450.147 323.486C456.06 328.799 462.77 333.149 470.031 336.378C473.829 338.065 478.733 339.268 481.781 336.443C484.828 333.617 484.067 328.654 485.912 324.969C486.145 324.749 486.324 324.478 486.435 324.178C486.546 323.877 486.586 323.555 486.552 323.237C486.517 322.918 486.41 322.612 486.237 322.342C486.065 322.072 485.833 321.846 485.558 321.681C483.069 319.221 482.564 315.332 483.09 311.872C483.616 308.413 485.022 305.147 485.826 301.741C486.631 298.336 486.782 294.532 484.968 291.535C483.901 289.941 482.521 288.581 480.912 287.538C477.389 285.036 473.461 283.16 469.301 281.995C467.155 281.404 465.009 281.006 462.863 280.373C461.532 279.964 457.926 277.472 456.789 277.676C454.45 278.063 452.057 289.451 451.23 291.954Z" fill="#A0616A"/>
<path opacity="0.1" d="M451.23 291.954C450.827 293.355 450.177 294.672 449.31 295.843C448.412 296.807 447.351 297.604 446.176 298.196C442.399 300.33 438.401 302.048 434.254 303.321C433.181 305.469 434.92 307.887 436.572 309.627L441.422 314.762C444.255 317.749 447.088 320.736 450.147 323.486C456.06 328.799 462.77 333.149 470.031 336.378C473.829 338.065 478.733 339.268 481.781 336.443C484.828 333.617 484.067 328.654 485.912 324.969C486.145 324.749 486.324 324.478 486.435 324.178C486.546 323.877 486.586 323.555 486.552 323.237C486.517 322.918 486.41 322.612 486.237 322.342C486.065 322.072 485.833 321.846 485.558 321.681C483.069 319.221 482.564 315.332 483.09 311.872C483.616 308.413 485.022 305.147 485.826 301.741C486.631 298.336 486.782 294.532 484.968 291.535C483.901 289.941 482.521 288.581 480.912 287.538C477.389 285.036 473.461 283.16 469.301 281.995C467.155 281.404 465.009 281.006 462.863 280.373C461.532 279.964 457.926 277.472 456.789 277.676C454.45 278.063 452.057 289.451 451.23 291.954Z" fill="black"/>
<path d="M446.412 299.679C446.359 298.83 446.262 297.842 445.543 297.38C445.124 297.149 444.646 297.048 444.17 297.089C434.018 297.089 425.788 305.083 419.403 312.968C405.946 329.567 395.334 348.304 386.137 367.61C380.482 379.503 375.235 392.878 378.873 405.545C380.023 409.301 381.734 412.862 383.948 416.106C386.998 420.742 390.699 424.913 394.937 428.493C396.527 430.024 398.498 431.1 400.645 431.609C403.865 432.124 406.923 430.352 409.67 428.643C415.186 425.205 420.676 421.732 426.142 418.222C435.016 412.528 443.891 406.737 451.713 399.668C459.536 392.599 466.329 384.155 470.181 374.335C471.823 370.167 472.917 365.74 474.763 361.701C477.574 355.48 482.114 349.99 483.723 343.351C484.485 340.182 484.55 336.905 485.365 333.736C486.009 331.211 487.125 328.826 487.661 326.28C488.198 323.733 488.069 320.908 486.449 318.824C483.723 315.364 478.422 315.88 474.108 316.772C468.486 317.932 458.463 320.79 453.108 317.384C448.526 314.451 446.734 304.664 446.412 299.679Z" fill="#EEEFF3"/>
<path d="M443.547 320.252L437.527 320.682L433.235 318.952L436.679 308.628C436.679 308.628 448.805 310.003 450.05 313.828C450.05 313.828 450.951 316.46 452.411 316.847C453.87 317.233 459.922 316.374 461.178 319.382C462.433 322.39 462.036 338.72 453.87 336.572L450.007 326.237L448.279 323.658C448.279 323.658 443.118 322.831 443.547 320.252Z" fill="#3F3D56"/>
<path d="M394.1 416.235C394.1 416.235 407.427 328.428 449.127 296.982C449.127 296.982 449.556 288.806 442.249 289.666C434.941 290.525 404.423 284.498 404.423 284.498L375.621 340.461C375.621 340.461 369.183 392.534 364.44 401.14C359.697 409.746 330.047 478.192 330.047 478.192C330.047 478.192 346.82 534.574 371.747 458.854C371.747 458.854 352.432 520.403 406.998 526.43C461.564 532.458 455.147 522.982 455.147 522.982L461.586 478.224V444.64L473.626 421.005L522.633 358.596C522.633 358.596 489.368 312.485 483.015 316.6C483.026 316.557 441.819 381.802 394.1 416.235Z" fill="#3F3D56"/>
<path d="M410.872 287.968L404.433 284.52C404.433 284.52 384.656 291.836 377.778 320.252C377.778 320.252 361.016 332.296 349.878 341.342C349.878 341.342 334.855 313.409 334.855 303.89C334.855 303.89 309.916 320.682 304.326 316.374C304.326 316.374 319.349 385.669 347.753 380.502C376.158 375.334 386.846 358.553 386.846 358.553L410.872 287.968Z" fill="#3F3D56"/>
<path d="M506.312 361.142L522.644 358.553C522.644 358.553 532.967 372.326 514.478 392.556L503.296 460.992C503.296 460.992 504.584 483.8 500.721 501.022C496.858 518.244 490.827 571.177 490.827 571.177C490.827 571.177 471.061 563.861 460.309 565.15L476.641 406.372L506.312 361.142Z" fill="#3F3D56"/>
<path d="M333.921 308.606C333.921 308.606 324.886 254.373 309.412 274.603C293.938 294.833 311.129 322.809 311.129 322.809L333.921 308.606Z" fill="#A0616A"/>
<path d="M484.174 311.432C503.405 311.432 518.995 295.823 518.995 276.569C518.995 257.315 503.405 241.707 484.174 241.707C464.943 241.707 449.352 257.315 449.352 276.569C449.352 295.823 464.943 311.432 484.174 311.432Z" fill="#A0616A"/>
<path d="M512.01 238.956C511.214 237.964 510.497 236.912 509.863 235.809C507.771 232.736 504.498 230.727 501.279 228.922C495.388 225.699 488.67 222.669 482.114 224.238C477.574 225.312 473.722 228.535 469.151 229.459C464.579 230.383 459.15 229.363 456.07 232.8C452.99 236.238 454.353 241.653 451.702 245.209C450.232 247.175 447.507 248.98 448.247 251.322C448.558 252.311 449.47 253.009 449.889 253.965C450.629 255.641 449.717 257.564 449.674 259.401C449.621 262.119 451.477 264.451 452.786 266.836C454.095 269.221 454.804 272.551 452.786 274.421C459.615 268.952 467.099 264.358 475.063 260.744C475.052 261.847 474.764 262.929 474.226 263.892C478.539 263.256 482.808 262.348 487.007 261.174L484.796 265.418L494.282 261.271C496.847 260.143 500.066 259.122 502.255 260.841C503.264 261.804 503.972 263.039 504.294 264.397C505.545 268.278 506.288 272.304 506.505 276.376C506.741 280.974 506.505 286.045 509.477 289.558C510.319 290.448 511.335 291.156 512.461 291.636C513.588 292.117 514.801 292.361 516.025 292.353C517.25 292.345 518.46 292.085 519.58 291.59C520.7 291.094 521.706 290.373 522.537 289.472C523.374 286.249 522.118 282.919 522.054 279.61C521.957 274.786 524.382 270.252 524.822 265.45C525.391 259.38 521.807 255.781 520.176 250.409C519.543 248.346 519.929 245.907 518.716 243.963C517.15 241.556 513.952 241.019 512.01 238.956Z" fill="#3F3D56"/>
<path d="M309.637 337.281L322.053 316.406L311.923 310.368C314.327 307.554 322.654 297.713 324.875 293.114C324.875 293.114 337.237 283.058 339.759 270.037C339.759 270.037 343.107 273.196 346.09 269.156C349.073 265.117 361.435 257.983 351.659 248.088L352.443 244.081C354.035 243.224 355.355 241.936 356.252 240.364C358.398 236.808 358.151 232.843 355.791 231.382C353.43 229.921 349.792 231.705 347.678 235.261C346.624 236.948 346.129 238.926 346.262 240.912L343.439 244.35C343.439 244.35 333.224 234.197 326.377 257.414C326.377 257.414 325.626 261.614 327.772 262.893C327.772 262.893 317.299 277.558 316.13 284.38C316.13 284.38 307.116 297.594 307.041 301.569L304.487 305.867L293.756 299.485L281.136 320.725C274.902 318.716 270.245 318.576 268.957 320.725C266.703 324.518 275.61 333.993 288.863 341.89C302.115 349.786 314.67 353.106 316.924 349.324C318.372 346.993 315.357 342.352 309.637 337.281Z" fill="#DFC091"/>
<path opacity="0.1" d="M352.303 237.699C351.407 239.271 350.091 240.562 348.504 241.427L347.71 245.424C357.497 255.319 345.124 262.463 342.141 266.503C341.834 267.037 341.408 267.494 340.898 267.838C340.387 268.183 339.804 268.405 339.194 268.489C338.584 268.573 337.963 268.516 337.378 268.323C336.793 268.129 336.26 267.804 335.821 267.373C333.299 280.394 320.937 290.45 320.937 290.45C318.694 295.059 310.389 304.9 307.985 307.704L311.837 310.003C314.241 307.199 322.568 297.347 324.789 292.749C324.789 292.749 337.151 282.693 339.673 269.672C339.673 269.672 343.021 272.831 346.004 268.791C348.987 264.752 361.349 257.618 351.573 247.723L352.357 243.716C353.945 242.857 355.261 241.569 356.155 239.999C358.302 236.453 358.066 232.478 355.705 231.017C354.996 230.611 354.175 230.449 353.365 230.555C353.727 231.75 353.819 233.011 353.636 234.247C353.452 235.482 352.997 236.661 352.303 237.699Z" fill="black"/>
<path opacity="0.1" d="M309.584 336.937L321.999 316.062L318.168 313.763L305.753 334.638C311.472 339.719 314.477 344.307 313.06 346.735C310.914 350.334 299.443 347.498 286.931 340.429C287.564 340.815 288.197 341.213 288.852 341.6C302.094 349.496 314.659 352.826 316.913 349.034C318.276 346.649 315.271 342.008 309.584 336.937Z" fill="black"/>
</g>
<defs>
<clipPath id="clip0_108_77">
<rect width="1160" height="903" fill="white"/>
</clipPath>
</defs>
</svg>
