<svg width="132" height="305" viewBox="0 0 132 305" fill="none" xmlns="http://www.w3.org/2000/svg">
<path d="M101.93 268.625L99.4755 211.415L71.7044 212.565C72.8124 203.91 76.5345 173.749 74.981 161.809C74.981 161.809 86.3835 126.02 74.5519 97.0703C74.5519 97.0703 85.2314 98.9855 85.9015 87.1658C86.5716 75.3462 101.746 45.3238 69.6951 38.4053L66.0682 29.4865C68.1019 25.7402 69.0427 21.4961 68.7838 17.2372C68.4271 7.45124 62.8239 -0.0540224 56.2822 0.1074C49.7405 0.268822 44.8676 8.4803 45.2879 18.2248C45.3875 22.9148 46.962 27.4565 49.7875 31.2041L48.6584 41.6288C48.6584 41.6288 15.4076 34.7689 31.8686 89.4169C31.8686 89.4169 35.8086 98.6758 41.6914 98.4307C41.6914 98.4307 39.9621 140.88 46.4598 155.852C46.4598 155.852 45.7369 193.557 50.7191 201.498L51.2283 213.273L21.8284 214.519L24.352 272.712C9.463 276.789 0.0977287 282.52 0.331192 288.421C0.78135 298.812 30.5767 306.025 66.9051 304.515C103.234 303.006 132.28 293.364 131.843 282.994C131.692 276.525 119.755 271.255 101.93 268.625Z" fill="#DFC091"/>
</svg>
