<svg width="92" height="43" viewBox="0 0 92 43" fill="none" xmlns="http://www.w3.org/2000/svg">
<path fill-rule="evenodd" clip-rule="evenodd" d="M14.5713 26.047L14.6074 25.65C15.0105 23.1779 14.0584 22.1185 11.0539 22.1185C8.15926 22.1185 6.877 23.1779 6.51075 25.65L6.4378 26.0909C6.0347 28.5639 7.35381 29.6682 9.95443 29.6682C12.6295 29.6682 14.2412 28.1659 14.5713 26.047ZM24.7926 24.2374L28.237 0.748383C28.2677 0.538688 28.3581 0.348813 28.4922 0.211995C28.6264 0.0751768 28.7959 0.000133282 28.971 0L32.99 0C33.0989 0.000130141 33.2064 0.0292411 33.305 0.0852897C33.4036 0.141338 33.491 0.222967 33.5609 0.324446C33.6309 0.425925 33.6817 0.544797 33.7099 0.672718C33.7381 0.800639 33.7429 0.93451 33.724 1.06494L32.5967 8.82964C33.9887 7.59362 35.5275 6.71074 38.3492 6.71074C43.8445 6.71074 46.0059 11.1251 45.2365 16.3784L43.9543 25.0315C43.0383 31.3443 39.9977 34.3909 33.2194 34.3909C26.8449 34.3909 23.9134 30.1091 24.7926 24.2374ZM38.6056 23.972L39.6314 17.0408C40.0338 14.3034 39.1546 12.4499 36.187 12.4499C33.1833 12.4499 31.7905 14.3034 31.3874 17.0408L30.3616 23.972C29.9585 26.7094 30.8384 28.5639 33.8421 28.5639C36.8097 28.5639 38.2025 26.7094 38.6056 23.972ZM67.8051 22.3829H53.7002L53.4069 24.5018C53.0768 26.8421 53.6626 28.961 57.1807 28.961C60.2213 28.961 61.6871 27.9015 62.0165 25.6948C62.0266 25.6323 62.0543 25.576 62.0947 25.5357C62.1352 25.4953 62.186 25.4732 62.2383 25.4734H66.6319C66.7227 25.4735 66.8125 25.4974 66.8951 25.5435C66.9777 25.5897 67.0511 25.657 67.1103 25.7408C67.1696 25.8246 67.2133 25.9229 67.2384 26.0292C67.2636 26.1354 67.2696 26.2469 67.2561 26.3563C66.4867 31.5657 63.4454 34.3909 56.7408 34.3909C50.1091 34.3909 47.2521 30.0204 48.0944 24.4139L49.2668 16.2467C50.2558 9.88908 53.2971 6.71074 60.0747 6.71074C66.5965 6.71074 69.4904 10.9924 68.6481 16.7325L67.8058 22.3829H67.8051ZM54.5425 16.6877L54.3598 18.0563H63.116L63.3356 16.6437C63.7387 13.8186 62.7866 12.1406 59.6355 12.1406C56.3745 12.1406 54.9456 13.9951 54.5425 16.6877ZM80.6284 26.5328C83.6329 26.5328 85.025 24.6783 85.4281 22.0297L86.1245 17.1296C86.5268 14.4361 85.6477 12.6264 82.6801 12.6264C79.7124 12.6264 78.3204 14.4361 77.9173 17.1296L77.2216 22.0297C76.8185 24.6783 77.6608 26.5328 80.6284 26.5328ZM83.193 6.71074C89.5682 6.71074 92.5727 11.0812 91.6927 17.0408L89.3486 33.0222C88.2483 40.3066 84.8415 43 78.8701 43H78.2474C72.9349 43 69.4904 39.7768 70.0402 34.5235C70.0609 34.3873 70.1202 34.2643 70.2077 34.1757C70.2952 34.0872 70.4054 34.0387 70.5193 34.0386H75.3527C75.0594 36.0688 76.2688 37.4814 78.8333 37.4814C82.0942 37.4814 83.4494 35.6717 83.8157 33.1548L84.3286 29.8438C82.9373 31.1686 81.4347 31.9188 78.5039 31.9188C73.4478 31.9188 70.8464 27.7249 71.6887 21.9419L72.4949 16.3345C73.4109 10.0217 76.4515 6.70983 83.193 6.70983V6.71074ZM16.9952 3.48026C17.1086 3.4804 17.2205 3.51199 17.3223 3.57263C17.4242 3.63326 17.5134 3.72135 17.583 3.83019C17.6527 3.93903 17.7011 4.06577 17.7245 4.20076C17.7478 4.33575 17.7456 4.47545 17.7179 4.60923L17.1622 7.29353C20.5239 8.62013 22.1596 12.0857 21.5316 16.3784L20.2133 25.3846C19.401 30.895 16.7613 33.4586 12.6573 34.1987L12.1685 36.5546C12.1279 36.7506 12.0348 36.9246 11.9037 37.0489C11.7726 37.1732 11.6112 37.2407 11.445 37.2407H7.05599C6.94245 37.2408 6.83039 37.2093 6.72837 37.1486C6.62634 37.088 6.53704 36.9999 6.46727 36.8909C6.39749 36.7819 6.34908 36.655 6.32573 36.5198C6.30238 36.3847 6.3047 36.2448 6.33251 36.1109L6.72283 34.2307C2.69405 33.4375 0.434862 30.4056 0.904147 26.1797L0.977849 25.5612C1.49075 20.7489 4.20193 17.9237 10.5403 17.9237C12.9582 17.9237 14.7533 18.3656 15.5964 18.9392L15.9258 16.5998C16.3289 14.039 15.3768 12.3172 12.6648 12.3172C10.3936 12.3172 8.74512 13.244 8.41571 15.5834H3.13927C3.76498 10.2249 6.16931 7.3283 11.336 6.79949L11.8827 4.1646C11.9235 3.96887 12.0169 3.7953 12.1479 3.67135C12.2789 3.54741 12.4402 3.48016 12.6062 3.48026H16.9945H16.9952Z" fill="white"/>
</svg>
