<svg width="71" height="47" viewBox="0 0 71 47" fill="none" xmlns="http://www.w3.org/2000/svg">
<path d="M34.8876 45.9651C39.9813 45.9651 44.1106 40.7127 44.1106 34.2334C44.1106 27.7542 39.9813 22.5017 34.8876 22.5017C29.7939 22.5017 25.6646 27.7542 25.6646 34.2334C25.6646 40.7127 29.7939 45.9651 34.8876 45.9651Z" fill="white"/>
<path d="M36.3036 32.5783C36.3227 32.4566 36.227 32.3349 36.1122 32.3349C36.0165 32.3349 35.94 32.4079 35.9209 32.5053C35.9017 32.627 36.0165 32.7974 36.0739 32.8947C36.1696 32.846 36.2844 32.7243 36.3036 32.5783Z" fill="black"/>
<path d="M34.8685 23.4753L34.5815 24.3272H35.1364L34.8685 23.4753Z" fill="black"/>
<path d="M26.851 36.4971C26.6788 36.5701 26.6788 36.7892 26.717 36.9352C26.7553 37.0569 26.7936 37.1786 26.8701 37.2759L26.9084 37.349L26.9467 37.2516C26.9849 37.1299 27.0615 36.9839 27.138 36.8378L27.1763 36.7648L27.138 36.7161C27.0806 36.5944 26.9849 36.4241 26.851 36.4971Z" fill="black"/>
<path d="M27.425 30.5094C27.8077 30.7285 28.0182 30.4851 28.133 30.193C28.2478 29.9009 28.267 29.5115 27.8843 29.2924C27.559 29.0977 27.3102 29.2681 27.1954 29.6088C27.0615 29.9739 27.1189 30.3147 27.425 30.5094Z" fill="black"/>
<path d="M36.0739 34.2821C36.1696 34.2821 36.2653 34.2821 36.3227 34.1847L35.9209 33.4789C35.8635 33.5276 35.8061 33.6736 35.7869 33.7953C35.7678 34.0387 35.9017 34.2577 36.0739 34.2821Z" fill="black"/>
<path d="M41.9674 29.6332C42.2736 29.3898 42.2927 29.0491 42.1397 28.7083C41.9866 28.3676 41.7187 28.2459 41.4317 28.4649C41.0681 28.7326 41.1255 29.1221 41.2403 29.3898C41.3551 29.6576 41.6039 29.901 41.9674 29.6332Z" fill="black"/>
<path d="M27.6355 36.5701C27.5781 36.5944 27.5207 36.6674 27.4824 36.7404L27.4633 36.7891L27.4824 36.8378C27.5398 36.9351 27.6164 37.0082 27.7312 36.9838C27.8268 36.9351 27.8843 36.8378 27.846 36.7161C27.8268 36.5944 27.7312 36.5457 27.6355 36.5701Z" fill="black"/>
<path d="M34.8876 22.4044C29.7595 22.4044 25.5881 27.6861 25.5881 34.2334C25.5881 40.7565 29.7403 46.0625 34.8876 46.0625C40.0157 46.0625 44.1871 40.7808 44.1871 34.2334C44.1871 27.6861 40.0348 22.4044 34.8876 22.4044ZM43.1347 30.8015L42.3501 32.2376L43.3834 31.8968L43.4408 32.2132L42.0249 32.7L41.9674 32.408L42.7902 30.8989L41.7187 31.264L41.6613 30.9719L43.0773 30.4851L43.1347 30.8015ZM42.3501 28.538C42.6563 29.1708 42.4267 29.6576 42.0823 29.901C41.8144 30.0957 41.3551 30.2174 41.0298 29.5359C40.7046 28.8544 41.0107 28.3676 41.2786 28.1729C41.623 27.9295 42.044 27.9051 42.3501 28.538ZM35.5382 32.6514C35.5573 32.2863 35.8443 32.0915 36.1122 32.0915C36.2079 32.0915 36.3418 32.1402 36.4184 32.2132C36.514 32.2863 36.5906 32.4566 36.5714 32.627C36.5523 32.8461 36.4758 33.0164 36.2461 33.1868L36.3418 33.3572C36.4184 33.4789 36.514 33.6493 36.6097 33.8197C36.7054 33.6006 36.7437 33.3572 36.648 33.2112V33.1868H37.0307C37.0115 33.5032 36.935 33.771 36.7628 34.0387C36.9159 34.2821 37.0498 34.4525 37.1646 34.4768V34.5012H37.0115L36.8393 34.5255C36.648 34.5255 36.5906 34.5255 36.4758 34.3795C36.2653 34.5255 36.1696 34.5742 35.9591 34.5742C35.8252 34.5742 35.653 34.5255 35.5382 34.4038C35.4234 34.2821 35.3277 34.1117 35.3468 33.8927C35.3659 33.5763 35.5573 33.3815 35.7295 33.2112C35.6147 33.0164 35.519 32.8704 35.5382 32.6514ZM37.1072 34.8419C37.2603 35.2557 37.643 35.8398 38.0831 36.1076C38.4849 36.351 38.8676 36.2049 39.0398 35.8642C39.1929 35.5721 39.212 35.1583 38.925 34.8176C38.638 34.4768 38.1979 34.2821 37.8152 33.9414C37.0498 33.2842 37.0498 32.2863 37.2603 31.7264C37.5473 30.9476 38.1788 30.4608 38.7719 30.4851C39.1355 30.5095 39.3077 30.6068 39.5565 30.6798C39.8052 30.7529 40.0348 30.6798 40.0731 30.6555H40.0922L40.0731 32.4323H40.054C39.9009 31.9698 39.4417 31.4344 38.9824 31.3614C38.5806 31.2883 38.3701 31.5561 38.2936 31.7751C38.1596 32.1159 38.2362 32.5297 38.5232 32.7487C38.9442 33.0651 39.4225 33.2842 39.7669 33.6493C40.2453 34.1848 40.4558 35.0366 40.0922 35.9616C39.8052 36.6917 39.1738 37.0812 38.6954 37.1055C38.064 37.1299 37.9874 36.9108 37.643 36.8378C37.3751 36.7891 37.2029 36.9351 37.1455 37.0812H37.1263L37.1072 34.8419ZM40.1496 29.9253C39.0016 27.8321 37.1072 26.4691 34.945 26.4691C31.5964 26.4691 28.8601 29.7793 28.6114 33.9414L28.3818 34.0144C28.4392 29.5359 31.3285 25.9336 34.8684 25.9336C37.2029 25.9336 39.2312 27.4913 40.3793 29.828L40.1496 29.9253ZM34.6771 34.7689C34.6771 35.207 34.7536 35.4504 34.9067 35.5478V35.5721C34.811 35.6451 34.6962 35.8885 34.5623 36.1076C34.4283 36.3266 34.1222 37.0082 33.3951 37.1299C32.6105 37.2516 31.9217 36.7648 31.7303 35.9616C31.6155 35.4261 31.7686 34.8419 32.1513 34.6959C32.4766 34.5742 32.7636 34.8176 32.821 35.1827C32.8784 35.5234 32.7445 35.8399 32.6297 35.9129C32.6105 35.9372 32.6105 35.9859 32.6488 36.0346C32.8019 36.278 33.0315 36.351 33.2611 36.278C33.5673 36.1806 33.7204 35.8885 33.7204 35.1097C33.7204 34.4768 33.6821 31.7995 33.6821 31.3857C33.6821 30.9963 33.4907 30.7285 33.3377 30.6312V30.6068H34.9258V30.6312C34.7919 30.7042 34.6771 30.9719 34.6771 31.3614C34.6771 31.337 34.6771 34.3551 34.6771 34.7689ZM28.7262 34.6715C29.0515 34.5498 29.3385 34.7932 29.3959 35.1583C29.4533 35.4991 29.3194 35.8155 29.2045 35.8885C29.1854 35.9129 29.1854 35.9615 29.2237 36.0102C29.3768 36.2536 29.6064 36.3266 29.836 36.2536C30.1422 36.1563 30.2952 35.8642 30.2952 35.0853C30.2952 34.4525 30.257 31.7751 30.257 31.3614C30.257 30.9719 30.0656 30.7042 29.9125 30.6068V30.5825H31.5007V30.6068C31.3668 30.6798 31.252 30.9476 31.252 31.337C31.252 31.337 31.252 34.3551 31.252 34.7689C31.252 35.207 31.3285 35.4504 31.4816 35.5478V35.5721C31.3859 35.6451 31.2711 35.8885 31.1372 36.1076C31.0032 36.3266 30.6971 37.0082 29.9699 37.1299C29.1854 37.2516 28.4966 36.7648 28.3052 35.9616C28.1904 35.4261 28.3435 34.8176 28.7262 34.6715ZM29.2045 37.568C30.257 40.1236 32.3618 41.8761 34.7728 41.8761C38.2362 41.8761 41.049 38.2982 41.049 33.8927C41.049 33.2355 40.9916 32.6027 40.8768 31.9942L41.0872 31.8968C41.2595 32.627 41.3551 33.4059 41.3551 34.2091C41.3551 38.7606 38.4466 42.4602 34.8684 42.4602C32.2661 42.4602 30.0082 40.5131 28.9941 37.6897L29.2045 37.568ZM40.0731 27.5157C40.2262 27.7104 40.3984 27.7834 40.4941 27.6617C40.5706 27.5644 40.5323 27.4427 40.4175 27.2479L40.2262 26.9315C40.0348 26.6151 40.0157 26.323 40.1688 26.1283C40.4749 25.7389 40.8385 26.177 40.915 26.2744C41.3169 26.7855 41.1829 27.1263 41.1447 27.2479L40.915 27.1019C40.9724 26.9559 40.9724 26.7368 40.762 26.4691C40.628 26.323 40.4749 26.2013 40.3793 26.323C40.341 26.3717 40.3219 26.4691 40.4749 26.7368L40.6663 27.0532C40.8385 27.3697 40.8768 27.6374 40.7046 27.8564C40.4558 28.1729 40.1496 28.0268 39.9009 27.7104C39.4991 27.1993 39.6139 26.8098 39.6713 26.6638L39.92 26.8098C39.8626 26.9802 39.8244 27.1993 40.0731 27.5157ZM38.7911 24.3515L39.8052 25.1304L39.6713 25.3981L38.8676 24.7896L38.6954 25.1547L39.3843 25.6659L39.2503 25.9336L38.5997 25.4468L38.4084 25.8606L39.2312 26.4691L39.0972 26.7368L38.064 25.9579L38.7911 24.3515ZM36.4758 23.3293L36.8202 23.451L36.935 24.9357L37.6239 23.743L37.9491 23.8647L37.5473 25.6659L37.3177 25.5929L37.6239 24.2298L36.9159 25.4468L36.7245 25.3738L36.6097 23.8647L36.3036 25.2034L36.0739 25.1304L36.4758 23.3293ZM34.7154 23.1832H35.0024L35.653 25.0574H35.3851L35.2511 24.6193H34.4857L34.3518 25.0574H34.0839L34.7154 23.1832ZM33.0506 25.033C33.3568 24.96 33.3759 24.7896 33.3377 24.5219L33.1463 23.4023L33.3951 23.3293L33.5864 24.4732C33.6821 25.0087 33.5099 25.2521 33.1272 25.3495C33.0124 25.3738 32.8593 25.3981 32.8019 25.3981L32.7445 25.0574C32.8402 25.0574 32.9358 25.0574 33.0506 25.033ZM29.7021 25.3251L31.0224 25.8363L30.4292 24.7166L30.6397 24.5462L31.4433 26.104L31.252 26.2744L29.8743 25.7632L30.4866 26.9315L30.2761 27.1019L29.4724 25.5442L29.7021 25.3251ZM27.9991 27.4183L28.4392 27.9051L29.0323 27.0532L28.5922 26.5664L28.7644 26.323L29.8743 27.54L29.7021 27.7834L29.2237 27.2479L28.6305 28.0998L29.1089 28.6353L28.9367 28.8787L27.8268 27.6617L27.9991 27.4183ZM26.9658 29.4872C27.2145 28.83 27.6546 28.7814 28.0182 29.0004C28.2861 29.1708 28.6305 29.6089 28.3626 30.3147C28.0947 31.0449 27.6164 30.9719 27.3293 30.8015C26.9658 30.6068 26.717 30.1444 26.9658 29.4872ZM26.43 31.4587L27.3293 31.7021C27.7503 31.8238 27.846 32.0915 27.7694 32.5783C27.7503 32.7244 27.6929 32.8948 27.6738 32.9678L27.4059 32.8948C27.4441 32.7974 27.4824 32.6757 27.5207 32.5297C27.5781 32.1646 27.4824 32.0429 27.2719 31.9942L26.3917 31.7508L26.43 31.4587ZM27.2719 34.2578C27.2719 34.4768 27.138 34.6715 26.9466 34.6715C26.7744 34.6715 26.6214 34.5012 26.6214 34.2578C26.6214 34.0387 26.7553 33.844 26.9466 33.844C27.138 33.844 27.2719 34.0387 27.2719 34.2578ZM27.3293 37.0568H27.3102C27.2528 37.1785 27.1763 37.3246 27.1189 37.4463L27.0997 37.5193L27.1189 37.5436C27.2337 37.641 27.3867 37.6897 27.5016 37.714H27.5398L27.4824 38.0061H27.4441C27.3102 37.9574 27.1954 37.9087 27.0615 37.8357L27.004 37.787C26.9658 37.9087 26.9849 38.0548 27.004 38.1521L27.0232 38.2008L26.7936 38.2982L26.7744 38.2495C26.717 38.0061 26.7553 37.7383 26.8127 37.6166L26.7553 37.568C26.6214 37.3976 26.5448 37.2516 26.4874 37.0325C26.3917 36.6187 26.4874 36.3023 26.7744 36.2049C27.004 36.1319 27.1954 36.3023 27.3102 36.497L27.3485 36.57L27.3867 36.5214C27.4441 36.424 27.5207 36.3753 27.5781 36.351C27.7886 36.278 27.9608 36.4483 28.0182 36.6917C28.0756 36.9351 28.0373 37.2272 27.7886 37.3002C27.5781 37.3489 27.425 37.2029 27.3293 37.0568ZM29.0897 40.0263C28.9749 39.8559 28.841 39.7099 28.7262 39.8316C28.6688 39.8802 28.6496 39.9776 28.7836 40.2453L28.9367 40.5861C29.0897 40.9268 29.0897 41.1946 28.8984 41.3893C28.6305 41.657 28.3435 41.4623 28.1139 41.1216C27.7503 40.5617 27.9225 40.1723 27.9799 40.0506L28.2095 40.221C28.1521 40.3427 28.0947 40.5861 28.3052 40.9268C28.4392 41.1459 28.6114 41.2433 28.707 41.1459C28.7836 41.0729 28.7644 40.9268 28.6688 40.7078L28.5157 40.367C28.3626 40.0263 28.3626 39.7342 28.5348 39.5638C28.8793 39.2231 29.2045 39.7342 29.262 39.8316C29.6255 40.3914 29.4533 40.7321 29.3959 40.8295L29.1663 40.6591C29.262 40.5374 29.3002 40.3427 29.0897 40.0263ZM30.7736 42.874C30.5823 43.1904 30.1804 43.5312 29.6829 43.0444C29.1854 42.5576 29.3194 41.9734 29.5107 41.6814C29.7595 41.2676 30.1422 41.0485 30.6014 41.4867C31.0798 41.9248 31.0224 42.4602 30.7736 42.874ZM32.3809 44.7482L32.1513 44.6508L31.6921 42.9227L31.2902 44.237L31.0606 44.1153L31.5964 42.3629L31.8451 42.4846L32.2852 44.1397L32.6679 42.874L32.8976 42.9957L32.3809 44.7482ZM34.3901 45.1863L34.3709 43.3121H34.6197L34.6388 44.8699L35.5956 44.8455V45.1619L34.3901 45.1863ZM36.3418 45.0159L36.0739 43.1661L36.3227 43.0931L36.5906 44.9429L36.3418 45.0159ZM38.638 44.091L38.217 42.7767L38.2553 44.2857L38.064 44.3831L37.2412 43.2878L37.6621 44.6021L37.4516 44.7238L36.8776 42.9957L37.2029 42.8253L38.0065 43.8963L37.9683 42.4116L38.2744 42.2412L38.8485 43.9693L38.638 44.091ZM39.5756 43.3851L38.7528 41.8517L38.9633 41.657L39.7861 43.1904L39.5756 43.3851ZM40.8194 42.1195L39.9583 41.0242L39.5373 41.5597L39.3651 41.3406L40.3793 40.0506L40.5515 40.2697L40.1305 40.8051L40.9916 41.9004L40.8194 42.1195ZM41.8718 40.5861L40.628 39.5882L41.2595 38.2982L41.4699 38.4685L40.9724 39.4665L41.2595 39.6855L41.6804 38.8093L41.8909 38.9797L41.4699 39.8559L41.7952 40.1236L42.2927 39.1014L42.5032 39.2717L41.8718 40.5861ZM43.039 37.5923L42.8477 38.3712L41.4508 37.787L41.6422 37.0082C41.7761 36.497 42.0631 36.1806 42.5606 36.3753C43.039 36.5944 43.1729 37.0568 43.039 37.5923ZM42.8477 34.6715C42.6754 34.6715 42.5224 34.5012 42.5224 34.2578C42.5224 34.0387 42.6563 33.844 42.8477 33.844C43.0199 33.844 43.1729 34.0144 43.1729 34.2578C43.1729 34.5012 43.0199 34.6715 42.8477 34.6715Z" fill="black"/>
<path d="M30.4675 41.73C30.2187 41.5109 29.9508 41.4866 29.7404 41.8517C29.4916 42.2655 29.6447 42.6062 29.8552 42.8009C30.0465 42.9957 30.3527 43.093 30.6014 42.6549C30.7928 42.3142 30.7162 41.9734 30.4675 41.73Z" fill="black"/>
<path d="M42.4841 36.716C42.1397 36.57 41.9675 36.7404 41.8335 37.2759L41.757 37.5923L42.6946 37.9817L42.7711 37.6653C42.9051 37.1298 42.8094 36.8621 42.4841 36.716Z" fill="black"/>
<path d="M69.8086 12.1087C69.8851 12.133 69.9808 12.1087 70.0382 11.8896C70.0765 11.6949 69.9999 11.6219 69.9234 11.5976L69.8468 11.5732L69.732 12.0843L69.8086 12.1087ZM69.2537 12.4981C69.3685 12.5225 69.3876 12.5225 69.4067 12.4008L69.579 11.6219C69.5981 11.5002 69.5981 11.5002 69.4833 11.4515L69.5024 11.3542L70.0765 11.5489C70.2487 11.5976 70.3635 11.7436 70.3252 11.987C70.2869 12.1574 70.1721 12.2547 70.0382 12.2547L70.153 12.6928C70.1721 12.7902 70.2104 12.8389 70.2487 12.8389L70.2295 12.9362L69.9999 12.8632C69.9425 12.8389 69.9234 12.7902 69.9043 12.6928L69.8086 12.206L69.732 12.1817L69.6746 12.4981C69.6555 12.6198 69.6555 12.6198 69.7703 12.6685L69.7512 12.7659L69.2728 12.5955L69.2537 12.4981ZM70.0382 11.2325C69.6172 11.0864 69.2345 11.3785 69.1197 11.914C69.0049 12.4494 69.2345 12.9606 69.6364 13.1066C70.0573 13.2527 70.44 12.9606 70.5548 12.4251C70.6888 11.8896 70.4592 11.3542 70.0382 11.2325ZM70.1147 10.9404C70.6505 11.1351 70.9567 11.8166 70.8036 12.4981C70.6505 13.1796 70.1147 13.5691 69.579 13.3743C69.0432 13.1796 68.737 12.4981 68.8901 11.8166C69.024 11.1351 69.579 10.7457 70.1147 10.9404ZM64.623 14.6887C64.6996 15.0781 64.6996 15.5649 64.6996 15.5649C64.6996 15.5649 64.6805 15.3215 64.8335 14.7374L66.039 10.1859C66.3452 9.01755 66.3452 8.16566 65.9242 7.48415L65.9433 7.43547L68.8901 8.82283V8.87151C68.2778 9.09057 67.7994 9.74774 67.4933 10.916C67.3211 11.6219 64.623 21.6985 64.623 21.6985L63.1305 20.9927L61.6572 11.7679C61.5806 11.4028 61.5806 10.8917 61.5806 10.8917C61.5806 10.8917 61.5998 11.1351 61.4467 11.7193C61.3127 12.2547 60.1072 16.8793 60.1072 16.8793C59.8394 18.0962 59.8776 18.9481 60.2603 19.6053L60.2412 19.654L57.0839 18.4857V18.437C57.7154 18.2179 58.2703 17.5851 58.5765 16.4168L60.5665 8.45774C60.8726 7.1434 60.7961 5.97509 60.2412 5.29358L60.2603 5.2449L63.1688 6.31585L64.623 14.6887ZM54.5007 5.07453C53.0848 4.68509 52.128 6.87566 51.6497 9.69906C51.133 12.6928 51.3818 14.9808 52.6829 15.3459C53.9267 15.6866 54.9791 13.7394 55.4958 10.77C55.9741 7.9466 55.9359 5.46396 54.5007 5.07453ZM57.9833 11.4759C57.237 15.4432 54.9217 18.1693 52.2046 17.4147C49.2387 16.5872 48.3393 13.0336 49.1047 8.99321C49.8701 5.00151 52.0132 2.49452 54.7686 3.07867C58.0407 3.78452 58.7104 7.60585 57.9833 11.4759ZM43.7087 15.5893C42.3119 15.5406 42.1779 15.0294 41.3934 14.8104C40.8194 14.64 40.4367 14.9564 40.2645 15.2242H40.2262L40.3984 10.3319H40.4367C40.7237 11.2811 41.5274 12.5955 42.465 13.2527C43.3069 13.8611 44.168 13.5934 44.6081 12.8876C44.9908 12.2791 45.0864 11.1351 44.4741 10.3562C43.8809 9.57736 42.9242 9.04189 42.1205 8.26302C40.5132 6.68094 40.6089 4.56339 41.1255 3.37075C41.8335 1.71565 43.3069 1.03414 44.6272 1.20452C45.4309 1.30188 45.7944 1.56962 46.3493 1.78867C46.9042 2.00773 47.4017 1.88603 47.5166 1.81301H47.5548L47.3061 5.65868H47.2678C46.9808 4.63641 46.024 3.37075 45.029 3.12735C44.1488 2.93264 43.6513 3.32207 43.4408 3.78452C43.1155 4.49037 43.2495 5.29358 43.8618 5.82905C44.742 6.60792 45.8136 7.16774 46.5024 8.01962C47.5165 9.23661 47.8418 11.4272 46.9425 13.35C46.1771 14.9077 44.742 15.6379 43.7087 15.5893ZM38.6571 1.05848L38.5806 4.10094H38.5423C38.1596 2.95698 37.2029 2.73792 36.3227 2.73792L34.4475 2.76226L34.3901 6.43755L35.3468 6.46189C36.6097 6.48623 36.9924 6.36453 37.4517 5.34226H37.4899L37.3751 9.69906H37.3368C36.9159 8.5551 35.9783 8.48208 35.1172 8.50642H34.4092L34.3327 12.5468L36.2844 12.5955C37.5473 12.6198 38.1788 12.1817 38.5806 11.2568H38.6189L38.2744 14.8347C35.9591 14.7374 33.2994 14.713 31.2329 14.8347V14.786C31.6921 14.3966 31.96 13.496 31.96 12.1817L32.0365 3.49245C32.0365 2.25113 31.9791 1.47226 31.3094 1.03414V0.985463C33.5864 0.912444 36.4375 0.912444 38.6571 1.05848ZM26.0473 1.47226L29.3768 1.15584V1.20452C28.5157 1.71565 28.5923 2.6649 28.6879 4.14962L29.128 12.5468C29.2428 13.7638 29.4725 14.713 29.8934 14.9564V15.0051C29.8934 15.0051 29.128 15.0538 28.0565 15.1755C26.9849 15.2728 26.2004 15.3945 26.2004 15.3945V15.3459C26.5831 15.0051 26.9275 13.9828 26.851 12.7172C26.851 12.7172 26.564 7.26509 26.5257 6.80264C26.4874 6.29151 26.5257 5.92641 26.5257 5.92641C26.5257 5.92641 26.4683 6.31585 26.3726 6.75396C26.2769 7.19208 24.2295 15.857 24.2295 15.857H24.1721C24.1721 15.857 21.1488 8.74982 20.8809 8.19C20.6704 7.72755 20.5748 7.28943 20.5748 7.28943C20.5748 7.28943 20.6896 7.70321 20.747 8.23868C20.8235 8.77416 21.3593 13.5691 21.3593 13.5691C21.5315 14.8347 22.0482 15.7353 22.4883 15.93V15.9787L19.5798 16.5872L19.5606 16.5385C19.9242 16.1734 19.9816 15.1755 19.8477 13.9585L18.9675 5.63434C18.8335 4.36868 18.3169 3.37075 17.5897 3.05433V3.00566L20.9001 2.27547C20.9001 2.27547 23.6746 8.65246 24.153 9.62604C24.4591 8.38472 26.0473 1.47226 26.0473 1.47226ZM12.0407 7.65453L11.7536 12.8145L13.7628 12.1087L12.0407 7.65453ZM16.9392 17.2687C16.212 17.5121 14.9874 17.8528 14.9874 17.8528L14.9683 17.8042C15.2553 17.4634 15.5615 16.6845 15.1214 15.5893L14.4516 13.8855L11.6388 14.8591L11.524 16.8793C11.524 18.0962 12.0215 18.6074 12.3851 18.7047V18.7534C12.3851 18.7534 11.4858 19.1185 10.7778 19.3619C10.0889 19.654 9.20871 19.9704 9.20871 19.9704L9.18958 19.9217C9.45747 19.6296 9.76362 18.6074 9.82103 17.4391C9.9741 14.2993 10.2037 9.62604 10.4142 7.53283C10.5099 6.5349 10.4142 5.56132 9.80189 5.29358V5.2449C9.80189 5.2449 10.663 4.92849 11.6962 4.61207C12.5764 4.34433 13.6097 4.00358 13.6097 4.00358L13.6288 4.05226C13.227 4.73377 13.5332 5.46396 13.9159 6.36453C14.2794 7.21642 17.3601 14.421 17.628 15.0051C18.0873 16.003 18.3743 16.3925 18.8335 16.6602V16.7089C18.8909 16.7332 17.6663 17.074 16.9392 17.2687ZM3.62136 9.45567C3.44914 8.6768 2.9325 8.26302 2.56894 8.23868L2.54981 8.19C2.54981 8.19 3.52568 7.72755 4.21454 7.43547C4.94166 7.11906 5.99407 6.68094 5.99407 6.68094L6.0132 6.72962C5.74532 7.04604 5.63051 7.67887 5.78359 8.45774C5.78359 8.45774 7.12302 15.1268 7.31437 16.003C7.50572 16.8793 7.77361 17.3904 8.13717 17.4391L8.1563 17.4878C7.96495 17.7311 7.81187 18.291 7.62053 18.8264C7.42918 19.3619 7.02735 20.9927 5.4583 21.7715C3.7553 22.6234 2.01404 22.1123 1.28691 20.5789C0.808544 19.581 0.904218 18.2179 1.68874 17.6581C2.35846 17.1713 3.08558 17.4878 3.37261 18.1936C3.64049 18.8751 3.46828 19.6053 3.23866 19.8487C3.20039 19.8974 3.23866 19.9947 3.33434 20.0921C3.79357 20.4815 4.31021 20.4572 4.80771 20.1164C5.43916 19.6783 5.66878 18.9968 5.32435 17.3661C5.05647 16.0761 3.8127 10.3562 3.62136 9.45567Z" fill="white"/>
</svg>
