<svg width="62" height="47" viewBox="0 0 62 47" fill="none" xmlns="http://www.w3.org/2000/svg">
<g clip-path="url(#clip0_24_772)">
<path fill-rule="evenodd" clip-rule="evenodd" d="M7.00842 12.983C6.95141 13.0792 7.08499 12.7803 7.12354 12.6787L7.27382 12.2827C8.82508 8.18845 10.3756 4.09423 11.9269 0L61.843 0.0711263L6.67859 32.7128L31.8877 10.6161L12.9501 10.6552C12.6001 10.6559 12.2498 10.6552 11.9006 10.6722C9.65458 10.8109 7.70863 11.801 7.00839 12.9827" fill="#808285"/>
<path fill-rule="evenodd" clip-rule="evenodd" d="M59.1335 22.3778C59.1901 22.2817 57.6247 29.3334 54.8636 36.6229L2.76984 36.8346L59.0316 3.6864L33.8175 25.9918L52.7551 25.9527C53.1051 25.952 53.4554 25.9527 53.8048 25.9357C56.0508 25.797 58.4333 23.56 59.1335 22.3782" fill="white"/>
<path fill-rule="evenodd" clip-rule="evenodd" d="M9.70783 47H0.843018L6.9704 40.9465H2.90688L3.20123 39.2728H11.6429L5.53052 45.3158H10.0039L9.70783 47ZM11.3794 47L12.7392 39.2728H18.8844L18.5867 40.9667H15.1073L14.8711 42.3067H18.1514L17.8602 43.9645H14.5799L14.3501 45.2689H17.8294L17.525 47H11.3794ZM19.3322 47L20.6916 39.2728H23.3295L26.4186 43.2474C26.4766 43.3285 26.5673 43.4905 26.6928 43.7355C26.8152 43.9807 26.947 44.2707 27.0885 44.6093C27.09 44.2887 27.1009 44.0041 27.1196 43.7536C27.1377 43.505 27.1651 43.2836 27.1997 43.0886L27.871 39.2728H30.4941L29.1348 47H26.5111L23.425 43.0095C23.362 42.9283 23.2688 42.7664 23.1439 42.5215C23.0209 42.2761 22.8912 41.9896 22.7531 41.6582C22.7504 41.9826 22.7394 42.269 22.7209 42.5196C22.7029 42.7682 22.6755 42.9897 22.6409 43.1846L21.9694 47H19.3322H19.3322ZM31.354 47L32.7133 39.2728H35.4751L34.1151 47H31.354ZM37.7654 47L38.8037 41.0998H36.5563L36.8779 39.2728H44.1062L43.7847 41.0998H41.5371L40.4993 47H37.7654ZM44.0812 47L45.4406 39.2728H48.1745L47.6461 42.2761H51.2895L51.8179 39.2728H54.5581L53.1982 47H50.4581L51.0118 43.8544H47.3685L46.8147 47H44.0812Z" fill="#808285"/>
</g>
<defs>
<clipPath id="clip0_24_772">
<rect width="61" height="47" fill="white" transform="translate(0.843018)"/>
</clipPath>
</defs>
</svg>
